<?xml version="1.0" encoding="utf-8" standalone="no"?>
<!DOCTYPE svg PUBLIC "-//W3C//DTD SVG 1.1//EN"
  "http://www.w3.org/Graphics/SVG/1.1/DTD/svg11.dtd">
<svg xmlns:xlink="http://www.w3.org/1999/xlink" width="460.8pt" height="345.6pt" viewBox="0 0 460.8 345.6" xmlns="http://www.w3.org/2000/svg" version="1.1">
 <metadata>
  <rdf:RDF xmlns:dc="http://purl.org/dc/elements/1.1/" xmlns:cc="http://creativecommons.org/ns#" xmlns:rdf="http://www.w3.org/1999/02/22-rdf-syntax-ns#">
   <cc:Work>
    <dc:type rdf:resource="http://purl.org/dc/dcmitype/StillImage"/>
    <dc:date>2023-07-15T19:24:18.616586</dc:date>
    <dc:format>image/svg+xml</dc:format>
    <dc:creator>
     <cc:Agent>
      <dc:title>Matplotlib v3.7.0, https://matplotlib.org/</dc:title>
     </cc:Agent>
    </dc:creator>
   </cc:Work>
  </rdf:RDF>
 </metadata>
 <defs>
  <style type="text/css">*{stroke-linejoin: round; stroke-linecap: butt}</style>
 </defs>
 <g id="figure_1">
  <g id="patch_1">
   <path d="M 0 345.6 
L 460.8 345.6 
L 460.8 0 
L 0 0 
z
" style="fill: #ffffff"/>
  </g>
  <g id="axes_1">
   <g id="patch_2">
    <path d="M 57.6 307.584 
L 414.72 307.584 
L 414.72 41.472 
L 57.6 41.472 
z
" style="fill: #ffffff"/>
   </g>
   <g id="matplotlib.axis_1">
    <g id="xtick_1">
     <g id="line2d_1">
      <path d="M 70.884102 307.584 
L 70.884102 41.472 
" clip-path="url(#p7f05aa83a0)" style="fill: none; stroke: #cccccc; stroke-width: 0.8; stroke-linecap: round"/>
     </g>
     <g id="text_1">
      <!-- $\mathdefault{0}$ -->
      <g style="fill: #262626" transform="translate(68.253958 323.189931) scale(0.1056 -0.1056)">
       <defs>
        <path id="CMR17-30" d="M 2688 2025 
C 2688 2416 2682 3080 2413 3591 
C 2176 4039 1798 4198 1466 4198 
C 1158 4198 768 4058 525 3597 
C 269 3118 243 2524 243 2025 
C 243 1661 250 1106 448 619 
C 723 -39 1216 -128 1466 -128 
C 1760 -128 2208 -7 2470 600 
C 2662 1042 2688 1559 2688 2025 
z
M 1466 -26 
C 1056 -26 813 325 723 812 
C 653 1188 653 1738 653 2096 
C 653 2588 653 2997 736 3387 
C 858 3929 1216 4096 1466 4096 
C 1728 4096 2067 3923 2189 3400 
C 2272 3036 2278 2607 2278 2096 
C 2278 1680 2278 1169 2202 792 
C 2067 95 1690 -26 1466 -26 
z
" transform="scale(0.015625)"/>
       </defs>
       <use xlink:href="#CMR17-30" transform="scale(0.996264)"/>
      </g>
     </g>
    </g>
    <g id="xtick_2">
     <g id="line2d_2">
      <path d="M 114.567437 307.584 
L 114.567437 41.472 
" clip-path="url(#p7f05aa83a0)" style="fill: none; stroke: #cccccc; stroke-width: 0.8; stroke-linecap: round"/>
     </g>
     <g id="text_2">
      <!-- $\mathdefault{20}$ -->
      <g style="fill: #262626" transform="translate(109.307149 323.189931) scale(0.1056 -0.1056)">
       <defs>
        <path id="CMR17-32" d="M 2669 989 
L 2554 989 
C 2490 536 2438 459 2413 420 
C 2381 369 1920 369 1830 369 
L 602 369 
C 832 619 1280 1072 1824 1597 
C 2214 1967 2669 2402 2669 3035 
C 2669 3790 2067 4224 1395 4224 
C 691 4224 262 3604 262 3030 
C 262 2780 448 2748 525 2748 
C 589 2748 781 2787 781 3010 
C 781 3207 614 3264 525 3264 
C 486 3264 448 3258 422 3245 
C 544 3790 915 4058 1306 4058 
C 1862 4058 2227 3617 2227 3035 
C 2227 2479 1901 2000 1536 1584 
L 262 146 
L 262 0 
L 2515 0 
L 2669 989 
z
" transform="scale(0.015625)"/>
       </defs>
       <use xlink:href="#CMR17-32" transform="scale(0.996264)"/>
       <use xlink:href="#CMR17-30" transform="translate(45.690477 0) scale(0.996264)"/>
      </g>
     </g>
    </g>
    <g id="xtick_3">
     <g id="line2d_3">
      <path d="M 158.250772 307.584 
L 158.250772 41.472 
" clip-path="url(#p7f05aa83a0)" style="fill: none; stroke: #cccccc; stroke-width: 0.8; stroke-linecap: round"/>
     </g>
     <g id="text_3">
      <!-- $\mathdefault{40}$ -->
      <g style="fill: #262626" transform="translate(152.990484 323.189931) scale(0.1056 -0.1056)">
       <defs>
        <path id="CMR17-34" d="M 2150 4122 
C 2150 4256 2144 4256 2029 4256 
L 128 1254 
L 128 1088 
L 1779 1088 
L 1779 457 
C 1779 224 1766 160 1318 160 
L 1197 160 
L 1197 0 
C 1402 0 1747 0 1965 0 
C 2182 0 2528 0 2733 0 
L 2733 160 
L 2611 160 
C 2163 160 2150 224 2150 457 
L 2150 1088 
L 2803 1088 
L 2803 1254 
L 2150 1254 
L 2150 4122 
z
M 1798 3703 
L 1798 1254 
L 256 1254 
L 1798 3703 
z
" transform="scale(0.015625)"/>
       </defs>
       <use xlink:href="#CMR17-34" transform="scale(0.996264)"/>
       <use xlink:href="#CMR17-30" transform="translate(45.690477 0) scale(0.996264)"/>
      </g>
     </g>
    </g>
    <g id="xtick_4">
     <g id="line2d_4">
      <path d="M 201.934107 307.584 
L 201.934107 41.472 
" clip-path="url(#p7f05aa83a0)" style="fill: none; stroke: #cccccc; stroke-width: 0.8; stroke-linecap: round"/>
     </g>
     <g id="text_4">
      <!-- $\mathdefault{60}$ -->
      <g style="fill: #262626" transform="translate(196.673819 323.189931) scale(0.1056 -0.1056)">
       <defs>
        <path id="CMR17-36" d="M 678 2176 
C 678 3690 1395 4032 1811 4032 
C 1946 4032 2272 4009 2400 3776 
C 2298 3776 2106 3776 2106 3553 
C 2106 3381 2246 3323 2336 3323 
C 2394 3323 2566 3348 2566 3560 
C 2566 3954 2246 4179 1805 4179 
C 1043 4179 243 3390 243 1984 
C 243 253 966 -128 1478 -128 
C 2099 -128 2688 427 2688 1283 
C 2688 2081 2170 2662 1517 2662 
C 1126 2662 838 2407 678 1960 
L 678 2176 
z
M 1478 25 
C 691 25 691 1200 691 1436 
C 691 1896 909 2560 1504 2560 
C 1613 2560 1926 2560 2138 2120 
C 2253 1870 2253 1609 2253 1289 
C 2253 944 2253 690 2118 434 
C 1978 171 1773 25 1478 25 
z
" transform="scale(0.015625)"/>
       </defs>
       <use xlink:href="#CMR17-36" transform="scale(0.996264)"/>
       <use xlink:href="#CMR17-30" transform="translate(45.690477 0) scale(0.996264)"/>
      </g>
     </g>
    </g>
    <g id="xtick_5">
     <g id="line2d_5">
      <path d="M 245.617442 307.584 
L 245.617442 41.472 
" clip-path="url(#p7f05aa83a0)" style="fill: none; stroke: #cccccc; stroke-width: 0.8; stroke-linecap: round"/>
     </g>
     <g id="text_5">
      <!-- $\mathdefault{80}$ -->
      <g style="fill: #262626" transform="translate(240.357154 323.189931) scale(0.1056 -0.1056)">
       <defs>
        <path id="CMR17-38" d="M 1741 2264 
C 2144 2467 2554 2773 2554 3263 
C 2554 3841 1990 4179 1472 4179 
C 890 4179 378 3759 378 3180 
C 378 3021 416 2747 666 2505 
C 730 2442 998 2251 1171 2130 
C 883 1983 211 1634 211 934 
C 211 279 838 -128 1459 -128 
C 2144 -128 2720 362 2720 1010 
C 2720 1590 2330 1857 2074 2029 
L 1741 2264 
z
M 902 2822 
C 851 2854 595 3051 595 3351 
C 595 3739 998 4032 1459 4032 
C 1965 4032 2336 3676 2336 3262 
C 2336 2669 1670 2331 1638 2331 
C 1632 2331 1626 2331 1574 2370 
L 902 2822 
z
M 2080 1519 
C 2176 1449 2483 1240 2483 851 
C 2483 381 2010 25 1472 25 
C 890 25 448 438 448 940 
C 448 1443 838 1862 1280 2060 
L 2080 1519 
z
" transform="scale(0.015625)"/>
       </defs>
       <use xlink:href="#CMR17-38" transform="scale(0.996264)"/>
       <use xlink:href="#CMR17-30" transform="translate(45.690477 0) scale(0.996264)"/>
      </g>
     </g>
    </g>
    <g id="xtick_6">
     <g id="line2d_6">
      <path d="M 289.300777 307.584 
L 289.300777 41.472 
" clip-path="url(#p7f05aa83a0)" style="fill: none; stroke: #cccccc; stroke-width: 0.8; stroke-linecap: round"/>
     </g>
     <g id="text_6">
      <!-- $\mathdefault{100}$ -->
      <g style="fill: #262626" transform="translate(281.410345 323.189931) scale(0.1056 -0.1056)">
       <defs>
        <path id="CMR17-31" d="M 1702 4058 
C 1702 4192 1696 4192 1606 4192 
C 1357 3916 979 3827 621 3827 
C 602 3827 570 3827 563 3808 
C 557 3795 557 3782 557 3648 
C 755 3648 1088 3686 1344 3839 
L 1344 461 
C 1344 236 1331 160 781 160 
L 589 160 
L 589 0 
C 896 0 1216 0 1523 0 
C 1830 0 2150 0 2458 0 
L 2458 160 
L 2266 160 
C 1715 160 1702 230 1702 458 
L 1702 4058 
z
" transform="scale(0.015625)"/>
       </defs>
       <use xlink:href="#CMR17-31" transform="scale(0.996264)"/>
       <use xlink:href="#CMR17-30" transform="translate(45.690477 0) scale(0.996264)"/>
       <use xlink:href="#CMR17-30" transform="translate(91.380954 0) scale(0.996264)"/>
      </g>
     </g>
    </g>
    <g id="xtick_7">
     <g id="line2d_7">
      <path d="M 332.984112 307.584 
L 332.984112 41.472 
" clip-path="url(#p7f05aa83a0)" style="fill: none; stroke: #cccccc; stroke-width: 0.8; stroke-linecap: round"/>
     </g>
     <g id="text_7">
      <!-- $\mathdefault{120}$ -->
      <g style="fill: #262626" transform="translate(325.09368 323.189931) scale(0.1056 -0.1056)">
       <use xlink:href="#CMR17-31" transform="scale(0.996264)"/>
       <use xlink:href="#CMR17-32" transform="translate(45.690477 0) scale(0.996264)"/>
       <use xlink:href="#CMR17-30" transform="translate(91.380954 0) scale(0.996264)"/>
      </g>
     </g>
    </g>
    <g id="xtick_8">
     <g id="line2d_8">
      <path d="M 376.667447 307.584 
L 376.667447 41.472 
" clip-path="url(#p7f05aa83a0)" style="fill: none; stroke: #cccccc; stroke-width: 0.8; stroke-linecap: round"/>
     </g>
     <g id="text_8">
      <!-- $\mathdefault{140}$ -->
      <g style="fill: #262626" transform="translate(368.777015 323.189931) scale(0.1056 -0.1056)">
       <use xlink:href="#CMR17-31" transform="scale(0.996264)"/>
       <use xlink:href="#CMR17-34" transform="translate(45.690477 0) scale(0.996264)"/>
       <use xlink:href="#CMR17-30" transform="translate(91.380954 0) scale(0.996264)"/>
      </g>
     </g>
    </g>
    <g id="text_9">
     <!-- Epoch -->
     <g style="fill: #262626" transform="translate(220.299456 337.205701) scale(0.1152 -0.1152)">
      <defs>
       <path id="CMR17-45" d="M 3885 1615 
L 3770 1615 
C 3629 676 3546 166 2419 166 
L 1530 166 
C 1274 166 1261 197 1261 414 
L 1261 2176 
L 1862 2176 
C 2464 2176 2522 1960 2522 1430 
L 2637 1430 
L 2637 3081 
L 2522 3081 
C 2522 2557 2464 2342 1862 2342 
L 1261 2342 
L 1261 3913 
C 1261 4128 1274 4160 1530 4160 
L 2406 4160 
C 3398 4160 3514 3769 3603 2929 
L 3718 2929 
L 3565 4325 
L 326 4325 
L 326 4160 
C 768 4160 838 4160 838 3874 
L 838 451 
C 838 166 768 166 326 166 
L 326 0 
L 3654 0 
L 3885 1615 
z
" transform="scale(0.015625)"/>
       <path id="CMR17-70" d="M 1408 -1063 
C 998 -1063 973 -1037 973 -789 
L 973 402 
C 1158 134 1427 -38 1766 -38 
C 2406 -38 3053 523 3053 1388 
C 3053 2191 2496 2802 1837 2802 
C 1453 2802 1139 2592 960 2338 
L 960 2802 
L 198 2732 
L 198 2567 
C 576 2567 634 2528 634 2223 
L 634 -789 
C 634 -1031 608 -1063 198 -1063 
L 198 -1228 
C 352 -1216 634 -1216 800 -1216 
C 966 -1216 1254 -1216 1408 -1228 
L 1408 -1063 
z
M 973 2012 
C 973 2102 973 2235 1222 2471 
C 1254 2497 1472 2688 1792 2688 
C 2259 2688 2643 2108 2643 1382 
C 2643 656 2234 64 1728 64 
C 1498 64 1248 172 1056 472 
C 973 612 973 650 973 752 
L 973 2012 
z
" transform="scale(0.015625)"/>
       <path id="CMR17-6f" d="M 2758 1356 
C 2758 2176 2163 2816 1466 2816 
C 768 2816 173 2176 173 1356 
C 173 551 768 -64 1466 -64 
C 2163 -64 2758 551 2758 1356 
z
M 1466 51 
C 1165 51 909 230 762 480 
C 602 767 582 1126 582 1408 
C 582 1677 595 2010 762 2298 
C 890 2509 1139 2714 1466 2714 
C 1754 2714 1997 2554 2150 2330 
C 2349 2029 2349 1607 2349 1408 
C 2349 1158 2336 775 2163 467 
C 1984 173 1709 51 1466 51 
z
" transform="scale(0.015625)"/>
       <path id="CMR17-63" d="M 2234 2240 
C 2112 2240 1933 2240 1933 2017 
C 1933 1838 2080 1787 2163 1787 
C 2208 1787 2394 1807 2394 2024 
C 2394 2467 1958 2803 1466 2803 
C 787 2803 211 2178 211 1363 
C 211 516 813 -64 1466 -64 
C 2259 -64 2458 677 2458 748 
C 2458 774 2451 793 2406 793 
C 2362 793 2355 787 2330 703 
C 2163 180 1798 51 1523 51 
C 1114 51 621 427 621 1369 
C 621 2338 1094 2688 1472 2688 
C 1722 2688 2093 2573 2234 2240 
z
" transform="scale(0.015625)"/>
       <path id="CMR17-68" d="M 2656 1933 
C 2656 2259 2592 2790 1837 2790 
C 1312 2790 1056 2368 979 2157 
L 973 2157 
L 973 4396 
L 211 4326 
L 211 4160 
C 589 4160 646 4122 646 3817 
L 646 426 
C 646 184 621 153 211 153 
L 211 -13 
C 365 0 646 0 813 0 
C 979 0 1267 0 1421 -13 
L 1421 153 
C 1011 153 986 178 986 428 
L 986 1658 
C 986 2247 1344 2688 1792 2688 
C 2266 2688 2317 2266 2317 1958 
L 2317 428 
C 2317 184 2291 153 1882 153 
L 1882 -13 
C 2035 0 2317 0 2483 0 
C 2650 0 2938 0 3091 -13 
L 3091 153 
C 2682 153 2656 178 2656 428 
L 2656 1933 
z
" transform="scale(0.015625)"/>
      </defs>
      <use xlink:href="#CMR17-45" transform="scale(0.996264)"/>
      <use xlink:href="#CMR17-70" transform="translate(62.586301 0) scale(0.996264)"/>
      <use xlink:href="#CMR17-6f" transform="translate(116.084109 0) scale(0.996264)"/>
      <use xlink:href="#CMR17-63" transform="translate(164.377025 0) scale(0.996264)"/>
      <use xlink:href="#CMR17-68" transform="translate(202.260231 0) scale(0.996264)"/>
     </g>
    </g>
   </g>
   <g id="matplotlib.axis_2">
    <g id="ytick_1">
     <g id="line2d_9">
      <path d="M 57.6 273.772539 
L 414.72 273.772539 
" clip-path="url(#p7f05aa83a0)" style="fill: none; stroke: #cccccc; stroke-width: 0.8; stroke-linecap: round"/>
     </g>
     <g id="text_10">
      <!-- $\mathdefault{0.50}$ -->
      <g style="fill: #262626" transform="translate(30.596761 277.425504) scale(0.1056 -0.1056)">
       <defs>
        <path id="CMMI12-3a" d="M 1178 307 
C 1178 492 1024 619 870 619 
C 685 619 557 466 557 313 
C 557 128 710 0 864 0 
C 1050 0 1178 153 1178 307 
z
" transform="scale(0.015625)"/>
        <path id="CMR17-35" d="M 730 3692 
C 794 3666 1056 3584 1325 3584 
C 1920 3584 2246 3911 2432 4100 
C 2432 4157 2432 4192 2394 4192 
C 2387 4192 2374 4192 2323 4163 
C 2099 4058 1837 3973 1517 3973 
C 1325 3973 1037 3999 723 4139 
C 653 4171 640 4171 634 4171 
C 602 4171 595 4164 595 4037 
L 595 2203 
C 595 2089 595 2057 659 2057 
C 691 2057 704 2070 736 2114 
C 941 2401 1222 2522 1542 2522 
C 1766 2522 2246 2382 2246 1289 
C 2246 1085 2246 715 2054 421 
C 1894 159 1645 25 1370 25 
C 947 25 518 320 403 814 
C 429 807 480 795 506 795 
C 589 795 749 840 749 1038 
C 749 1210 627 1280 506 1280 
C 358 1280 262 1190 262 1011 
C 262 454 704 -128 1382 -128 
C 2042 -128 2669 440 2669 1264 
C 2669 2030 2170 2624 1549 2624 
C 1222 2624 947 2503 730 2274 
L 730 3692 
z
" transform="scale(0.015625)"/>
       </defs>
       <use xlink:href="#CMR17-30" transform="scale(0.996264)"/>
       <use xlink:href="#CMMI12-3a" transform="translate(45.690477 0) scale(0.996264)"/>
       <use xlink:href="#CMR17-35" transform="translate(72.787654 0) scale(0.996264)"/>
       <use xlink:href="#CMR17-30" transform="translate(118.478131 0) scale(0.996264)"/>
      </g>
     </g>
    </g>
    <g id="ytick_2">
     <g id="line2d_10">
      <path d="M 57.6 239.88449 
L 414.72 239.88449 
" clip-path="url(#p7f05aa83a0)" style="fill: none; stroke: #cccccc; stroke-width: 0.8; stroke-linecap: round"/>
     </g>
     <g id="text_11">
      <!-- $\mathdefault{0.75}$ -->
      <g style="fill: #262626" transform="translate(30.596761 243.537456) scale(0.1056 -0.1056)">
       <defs>
        <path id="CMR17-37" d="M 2886 3941 
L 2886 4081 
L 1382 4081 
C 634 4081 621 4165 595 4288 
L 480 4288 
L 294 3094 
L 410 3094 
C 429 3215 474 3540 550 3661 
C 589 3712 1062 3712 1171 3712 
L 2579 3712 
L 1869 2661 
C 1395 1954 1069 999 1069 165 
C 1069 89 1069 -128 1299 -128 
C 1530 -128 1530 89 1530 171 
L 1530 465 
C 1530 1508 1709 2196 2003 2636 
L 2886 3941 
z
" transform="scale(0.015625)"/>
       </defs>
       <use xlink:href="#CMR17-30" transform="scale(0.996264)"/>
       <use xlink:href="#CMMI12-3a" transform="translate(45.690477 0) scale(0.996264)"/>
       <use xlink:href="#CMR17-37" transform="translate(72.787654 0) scale(0.996264)"/>
       <use xlink:href="#CMR17-35" transform="translate(118.478131 0) scale(0.996264)"/>
      </g>
     </g>
    </g>
    <g id="ytick_3">
     <g id="line2d_11">
      <path d="M 57.6 205.996442 
L 414.72 205.996442 
" clip-path="url(#p7f05aa83a0)" style="fill: none; stroke: #cccccc; stroke-width: 0.8; stroke-linecap: round"/>
     </g>
     <g id="text_12">
      <!-- $\mathdefault{1.00}$ -->
      <g style="fill: #262626" transform="translate(30.596761 209.649407) scale(0.1056 -0.1056)">
       <use xlink:href="#CMR17-31" transform="scale(0.996264)"/>
       <use xlink:href="#CMMI12-3a" transform="translate(45.690477 0) scale(0.996264)"/>
       <use xlink:href="#CMR17-30" transform="translate(72.787654 0) scale(0.996264)"/>
       <use xlink:href="#CMR17-30" transform="translate(118.478131 0) scale(0.996264)"/>
      </g>
     </g>
    </g>
    <g id="ytick_4">
     <g id="line2d_12">
      <path d="M 57.6 172.108393 
L 414.72 172.108393 
" clip-path="url(#p7f05aa83a0)" style="fill: none; stroke: #cccccc; stroke-width: 0.8; stroke-linecap: round"/>
     </g>
     <g id="text_13">
      <!-- $\mathdefault{1.25}$ -->
      <g style="fill: #262626" transform="translate(30.596761 175.761359) scale(0.1056 -0.1056)">
       <use xlink:href="#CMR17-31" transform="scale(0.996264)"/>
       <use xlink:href="#CMMI12-3a" transform="translate(45.690477 0) scale(0.996264)"/>
       <use xlink:href="#CMR17-32" transform="translate(72.787654 0) scale(0.996264)"/>
       <use xlink:href="#CMR17-35" transform="translate(118.478131 0) scale(0.996264)"/>
      </g>
     </g>
    </g>
    <g id="ytick_5">
     <g id="line2d_13">
      <path d="M 57.6 138.220345 
L 414.72 138.220345 
" clip-path="url(#p7f05aa83a0)" style="fill: none; stroke: #cccccc; stroke-width: 0.8; stroke-linecap: round"/>
     </g>
     <g id="text_14">
      <!-- $\mathdefault{1.50}$ -->
      <g style="fill: #262626" transform="translate(30.596761 141.87331) scale(0.1056 -0.1056)">
       <use xlink:href="#CMR17-31" transform="scale(0.996264)"/>
       <use xlink:href="#CMMI12-3a" transform="translate(45.690477 0) scale(0.996264)"/>
       <use xlink:href="#CMR17-35" transform="translate(72.787654 0) scale(0.996264)"/>
       <use xlink:href="#CMR17-30" transform="translate(118.478131 0) scale(0.996264)"/>
      </g>
     </g>
    </g>
    <g id="ytick_6">
     <g id="line2d_14">
      <path d="M 57.6 104.332297 
L 414.72 104.332297 
" clip-path="url(#p7f05aa83a0)" style="fill: none; stroke: #cccccc; stroke-width: 0.8; stroke-linecap: round"/>
     </g>
     <g id="text_15">
      <!-- $\mathdefault{1.75}$ -->
      <g style="fill: #262626" transform="translate(30.596761 107.985262) scale(0.1056 -0.1056)">
       <use xlink:href="#CMR17-31" transform="scale(0.996264)"/>
       <use xlink:href="#CMMI12-3a" transform="translate(45.690477 0) scale(0.996264)"/>
       <use xlink:href="#CMR17-37" transform="translate(72.787654 0) scale(0.996264)"/>
       <use xlink:href="#CMR17-35" transform="translate(118.478131 0) scale(0.996264)"/>
      </g>
     </g>
    </g>
    <g id="ytick_7">
     <g id="line2d_15">
      <path d="M 57.6 70.444248 
L 414.72 70.444248 
" clip-path="url(#p7f05aa83a0)" style="fill: none; stroke: #cccccc; stroke-width: 0.8; stroke-linecap: round"/>
     </g>
     <g id="text_16">
      <!-- $\mathdefault{2.00}$ -->
      <g style="fill: #262626" transform="translate(30.596761 74.097214) scale(0.1056 -0.1056)">
       <use xlink:href="#CMR17-32" transform="scale(0.996264)"/>
       <use xlink:href="#CMMI12-3a" transform="translate(45.690477 0) scale(0.996264)"/>
       <use xlink:href="#CMR17-30" transform="translate(72.787654 0) scale(0.996264)"/>
       <use xlink:href="#CMR17-30" transform="translate(118.478131 0) scale(0.996264)"/>
      </g>
     </g>
    </g>
    <g id="text_17">
     <!-- Loss $\mathcal L$ -->
     <g style="fill: #262626" transform="translate(24.365139 191.381631) rotate(-90) scale(0.1152 -0.1152)">
      <defs>
       <path id="CMR17-4c" d="M 3469 1615 
L 3354 1615 
C 3302 983 3219 166 2125 166 
L 1530 166 
C 1274 166 1261 197 1261 414 
L 1261 3898 
C 1261 4129 1274 4192 1760 4192 
L 1901 4192 
L 1901 4352 
C 1638 4352 1331 4352 1069 4352 
C 870 4352 512 4352 326 4352 
L 326 4192 
C 768 4192 838 4192 838 3905 
L 838 452 
C 838 166 768 166 326 166 
L 326 0 
L 3315 0 
L 3469 1615 
z
" transform="scale(0.015625)"/>
       <path id="CMR17-73" d="M 1978 2697 
C 1978 2813 1971 2819 1933 2819 
C 1907 2819 1901 2813 1824 2717 
C 1805 2691 1747 2626 1728 2601 
C 1523 2819 1235 2819 1126 2819 
C 416 2819 160 2447 160 2076 
C 160 1498 813 1365 998 1325 
C 1402 1243 1542 1217 1677 1101 
C 1760 1025 1901 884 1901 654 
C 1901 384 1747 38 1158 38 
C 602 38 403 460 288 1021 
C 269 1110 269 1117 218 1117 
C 166 1117 160 1110 160 983 
L 160 63 
C 160 -51 166 -58 205 -58 
C 237 -58 243 -51 275 0 
C 314 57 410 211 448 276 
C 576 103 800 -64 1158 -64 
C 1792 -64 2131 283 2131 784 
C 2131 1112 1958 1285 1875 1362 
C 1683 1561 1459 1606 1190 1657 
C 838 1735 390 1825 390 2217 
C 390 2383 480 2737 1126 2737 
C 1811 2737 1850 2094 1862 1888 
C 1869 1856 1901 1849 1920 1849 
C 1978 1849 1978 1869 1978 1978 
L 1978 2697 
z
" transform="scale(0.015625)"/>
       <path id="CMSY10-4c" d="M 1152 610 
C 1498 1151 1606 1562 1690 1903 
C 1914 2790 2157 3562 2554 4005 
C 2630 4090 2682 4147 2886 4147 
C 3328 4147 3341 3704 3341 3613 
C 3341 3498 3309 3407 3309 3375 
C 3309 3330 3347 3330 3354 3330 
C 3456 3330 3629 3401 3789 3517 
C 3904 3607 3962 3671 3962 3934 
C 3962 4281 3782 4544 3424 4544 
C 3219 4544 2656 4493 2029 3856 
C 1517 3329 1216 2172 1094 1690 
C 979 1248 928 1048 736 662 
C 691 586 525 303 435 219 
C 262 59 198 -57 198 -89 
C 198 -102 211 -128 256 -128 
C 282 -128 416 -102 582 5 
C 691 68 704 80 851 231 
C 1171 231 1395 173 1798 58 
C 2125 -32 2451 -128 2778 -128 
C 3296 -128 3821 264 4026 546 
C 4154 719 4192 880 4192 899 
C 4192 944 4154 944 4147 944 
C 4045 944 3891 874 3782 796 
C 3610 687 3597 649 3558 539 
C 3526 436 3488 385 3462 346 
C 3411 269 3405 269 3309 269 
C 3002 269 2682 366 2259 481 
C 2080 532 1728 636 1408 636 
C 1325 636 1235 629 1152 610 
z
" transform="scale(0.015625)"/>
      </defs>
      <use xlink:href="#CMR17-4c" transform="scale(0.996264)"/>
      <use xlink:href="#CMR17-6f" transform="translate(57.381408 0) scale(0.996264)"/>
      <use xlink:href="#CMR17-73" transform="translate(103.071885 0) scale(0.996264)"/>
      <use xlink:href="#CMR17-73" transform="translate(138.873223 0) scale(0.996264)"/>
      <use xlink:href="#CMSY10-4c" transform="translate(204.750527 0) scale(0.996264)"/>
     </g>
    </g>
   </g>
   <g id="line2d_16">
    <path d="M 74.160352 55.709725 
L 77.502127 53.568 
L 80.778378 65.27971 
L 84.120153 78.157168 
L 87.396403 95.806064 
L 90.738178 101.851691 
L 94.014428 116.897985 
L 97.356203 126.888182 
L 100.632453 138.559225 
L 103.974228 148.915413 
L 107.250479 160.342463 
L 110.592254 170.35977 
L 113.868504 178.845337 
L 117.210279 179.238439 
L 120.486529 192.373446 
L 123.828304 193.091873 
L 127.104554 201.116563 
L 130.446329 205.454233 
L 133.72258 209.846124 
L 137.064355 210.998318 
L 140.340605 216.09508 
L 143.68238 221.65272 
L 146.95863 227.942342 
L 150.300405 228.565882 
L 153.576655 229.33853 
L 156.91843 233.445761 
L 160.19468 236.7939 
L 163.514614 237.458106 
L 166.812706 240.914687 
L 170.132639 243.313961 
L 173.430731 247.041646 
L 176.750664 247.434747 
L 180.048756 251.541979 
L 183.36869 248.627607 
L 186.710465 252.206185 
L 189.986715 254.510572 
L 193.32849 255.513658 
L 196.60474 256.89629 
L 199.946515 259.810663 
L 203.222765 261.49151 
L 206.564541 260.623976 
L 209.840791 264.039891 
L 213.182566 266.615383 
L 216.458816 266.778045 
L 219.800591 265.381858 
L 223.076841 268.26912 
L 226.418616 269.990632 
L 229.694866 269.868635 
L 233.036642 272.308575 
L 236.312892 274.124974 
L 239.654667 271.739256 
L 242.930917 277.459558 
L 246.272692 276.402251 
L 249.548942 275.69738 
L 252.890717 279.763946 
L 256.166967 277.391782 
L 259.508743 279.221737 
L 262.784993 280.292599 
L 266.126768 281.051691 
L 269.403018 280.739921 
L 272.722951 282.230995 
L 276.021043 282.068333 
L 279.340977 283.803401 
L 282.639068 283.491631 
L 285.959002 281.322796 
L 289.257094 284.399831 
L 292.577027 285.226699 
L 295.918802 285.59269 
L 299.195052 289.943915 
L 302.536827 286.717773 
L 305.813078 288.669725 
L 309.154853 287.680194 
L 312.431103 289.632145 
L 315.772878 289.02216 
L 319.049128 291.4621 
L 322.390903 290.255685 
L 325.667153 290.716563 
L 329.008928 292.288968 
L 332.285179 292.031419 
L 335.626954 291.096109 
L 338.903204 291.529876 
L 342.244979 294.213809 
L 345.521229 292.072085 
L 348.863004 291.17744 
L 352.139254 292.505852 
L 355.481029 293.251389 
L 358.75728 291.556986 
L 362.099055 295.094899 
L 365.375305 294.308696 
L 368.71708 294.86446 
L 371.99333 294.742463 
L 375.335105 292.912508 
L 378.611355 295.162675 
L 381.931289 295.393113 
L 385.229381 294.701797 
L 388.549314 295.488 
L 391.847406 295.352448 
L 395.167339 294.24092 
L 398.465431 294.783129 
" clip-path="url(#p7f05aa83a0)" style="fill: none; stroke: #4c72b0; stroke-width: 1.2; stroke-linecap: round"/>
   </g>
   <g id="line2d_17">
    <path d="M 77.502127 64.440794 
L 84.120153 93.267835 
L 90.738178 114.689896 
L 97.356203 134.474654 
L 103.974228 162.094967 
L 110.592254 163.22552 
L 117.210279 165.98011 
L 123.828304 167.819709 
L 130.446329 166.80348 
L 137.064355 162.001228 
L 143.68238 159.147793 
L 150.300405 160.056999 
L 156.91843 147.591481 
L 163.514614 158.687275 
L 170.132639 148.359085 
L 176.750664 150.964252 
L 183.36869 130.875138 
L 189.986715 137.953155 
L 196.60474 138.099443 
L 203.222765 139.768514 
L 209.840791 129.021982 
L 216.458816 133.081838 
L 223.076841 125.982265 
L 229.694866 120.607367 
L 236.312892 114.527303 
L 242.930917 116.852546 
L 249.548942 115.619931 
L 256.166967 118.437897 
L 262.784993 104.240675 
L 269.403018 108.984318 
L 276.021043 112.676506 
L 282.639068 111.29888 
L 289.257094 105.749642 
L 295.918802 96.996672 
L 302.536827 104.89982 
L 309.154853 92.323789 
L 315.772878 98.41127 
L 322.390903 97.361495 
L 329.008928 97.457917 
L 335.626954 99.603681 
L 342.244979 87.560706 
L 348.863004 88.031533 
L 355.481029 97.399841 
L 362.099055 93.829815 
L 368.71708 95.633362 
L 375.335105 89.470693 
L 381.931289 92.619435 
L 388.549314 91.777499 
L 395.167339 91.545923 
" clip-path="url(#p7f05aa83a0)" style="fill: none; stroke-dasharray: 4.8,1.8; stroke-dashoffset: 0; stroke: #4c72b0; stroke-width: 1.2"/>
   </g>
   <g id="line2d_18">
    <path d="M 73.832727 153.103976 
L 76.781352 156.140345 
L 79.729977 166.604974 
L 82.678603 183.9421 
L 85.627228 190.841707 
L 88.597694 193.051207 
L 91.54632 197.687092 
L 94.494945 201.143673 
L 97.44357 202.268756 
L 100.392195 207.663734 
L 103.34082 210.144339 
L 106.311287 212.123401 
L 109.23807 216.515292 
L 112.186695 216.772841 
L 115.157162 219.822766 
L 118.105787 222.411812 
L 121.054412 223.699558 
L 124.003037 224.539982 
L 126.951663 228.823431 
L 129.922129 227.969452 
L 132.870754 229.175867 
L 135.81938 231.629362 
L 138.768005 232.48334 
L 141.71663 232.917107 
L 144.665255 236.848121 
L 147.61388 236.807455 
L 150.562505 234.706396 
L 153.51113 240.142039 
L 156.481597 238.244309 
L 159.430222 242.459982 
L 162.378847 242.32443 
L 165.327472 240.955352 
L 168.276097 245.347244 
L 171.224723 245.577682 
L 174.195189 247.583855 
L 177.143814 245.469241 
L 180.070598 246.716321 
L 183.041065 249.305368 
L 185.98969 247.678741 
L 188.938315 250.037349 
L 191.88694 250.66089 
L 194.835565 252.382402 
L 197.806032 251.609755 
L 200.754657 254.022584 
L 203.703282 252.612841 
L 206.651907 256.028756 
L 209.600532 255.066336 
L 212.549157 256.001646 
L 215.519624 257.438499 
L 218.446408 256.733628 
L 221.395033 260.420648 
L 224.3655 256.706517 
L 227.314125 261.383068 
L 230.26275 260.27154 
L 233.211375 261.477955 
L 236.16 263.782342 
L 239.130467 261.599952 
L 242.079092 262.833477 
L 245.027717 261.965943 
L 247.976342 262.101495 
L 250.924967 264.324551 
L 253.873592 263.348575 
L 256.822217 265.097198 
L 259.770843 265.924067 
L 262.719468 266.357834 
L 265.689934 265.476744 
L 268.63856 267.225368 
L 271.587185 267.103371 
L 274.53581 269.909301 
L 277.484435 267.930239 
L 280.43306 268.838439 
L 283.403527 268.594445 
L 286.352152 273.813204 
L 289.278935 269.136654 
L 292.249402 271.07505 
L 295.198027 270.207516 
L 298.146652 271.508817 
L 301.095277 272.349241 
L 304.043903 271.98325 
L 307.014369 273.487879 
L 309.962994 272.498348 
L 312.91162 272.417017 
L 315.860245 273.664097 
L 318.80887 274.897622 
L 321.757495 275.629604 
L 324.727962 273.691207 
L 327.654745 275.019619 
L 330.60337 274.612962 
L 333.573837 273.935201 
L 336.522462 275.954929 
L 339.471087 277.324006 
L 342.419712 275.277168 
L 345.368337 278.232206 
L 348.338804 276.280254 
L 351.287429 274.19275 
L 354.236054 277.391782 
L 357.18468 278.069543 
L 360.133305 275.982039 
L 363.08193 277.730663 
L 366.030555 279.086185 
L 368.97918 276.293809 
L 371.927805 278.964188 
L 374.898272 277.811994 
L 377.846897 279.696169 
L 380.795522 277.961101 
L 383.744147 280.563703 
L 386.692772 278.028877 
L 389.641397 278.516865 
L 392.611864 278.774415 
L 395.560489 279.533507 
L 398.487273 277.337561 
" clip-path="url(#p7f05aa83a0)" style="fill: none; stroke: #dd8452; stroke-width: 1.2; stroke-linecap: round"/>
   </g>
   <g id="line2d_19">
    <path d="M 76.781352 160.717631 
L 82.678603 193.090362 
L 88.597694 201.330588 
L 94.494945 204.535758 
L 100.392195 207.675346 
L 106.311287 209.883525 
L 112.186695 213.551588 
L 118.105787 213.500476 
L 124.003037 216.549816 
L 129.922129 217.287195 
L 135.81938 218.056497 
L 141.71663 220.580998 
L 147.61388 219.425737 
L 153.51113 219.770862 
L 159.430222 214.506517 
L 165.327472 222.921697 
L 171.224723 222.292204 
L 177.143814 222.508873 
L 183.041065 224.34006 
L 188.938315 224.705587 
L 194.835565 223.444864 
L 200.754657 224.624476 
L 206.651907 224.326042 
L 212.549157 222.202465 
L 218.446408 225.460305 
L 224.3655 225.41081 
L 230.26275 224.23581 
L 236.16 223.826307 
L 242.079092 224.65101 
L 247.976342 224.457117 
L 253.873592 224.725374 
L 259.770843 224.35542 
L 265.689934 225.657308 
L 271.587185 224.158424 
L 277.484435 224.97348 
L 283.403527 225.056627 
L 289.278935 223.41404 
L 295.198027 223.142454 
L 301.095277 226.20662 
L 307.014369 225.179484 
L 312.91162 225.58578 
L 318.80887 224.723556 
L 324.727962 224.093174 
L 330.60337 224.708552 
L 336.522462 225.367221 
L 342.419712 225.106478 
L 348.338804 224.687489 
L 354.236054 223.632681 
L 360.133305 225.42646 
L 366.030555 224.656932 
L 371.927805 225.171098 
L 377.846897 224.400366 
L 383.744147 224.660576 
L 389.641397 224.846648 
L 395.560489 224.677971 
" clip-path="url(#p7f05aa83a0)" style="fill: none; stroke-dasharray: 4.8,1.8; stroke-dashoffset: 0; stroke: #dd8452; stroke-width: 1.2"/>
   </g>
   <g id="line2d_20"/>
   <g id="line2d_21"/>
   <g id="line2d_22"/>
   <g id="line2d_23"/>
   <g id="patch_3">
    <path d="M 57.6 307.584 
L 57.6 41.472 
" style="fill: none; stroke: #cccccc; stroke-linejoin: miter; stroke-linecap: square"/>
   </g>
   <g id="patch_4">
    <path d="M 414.72 307.584 
L 414.72 41.472 
" style="fill: none; stroke: #cccccc; stroke-linejoin: miter; stroke-linecap: square"/>
   </g>
   <g id="patch_5">
    <path d="M 57.6 307.584 
L 414.72 307.584 
" style="fill: none; stroke: #cccccc; stroke-linejoin: miter; stroke-linecap: square"/>
   </g>
   <g id="patch_6">
    <path d="M 57.6 41.472 
L 414.72 41.472 
" style="fill: none; stroke: #cccccc; stroke-linejoin: miter; stroke-linecap: square"/>
   </g>
   <g id="legend_1">
    <g id="patch_7">
     <path d="M 322.102153 221.02905 
L 407.328 221.02905 
Q 409.44 221.02905 409.44 218.91705 
L 409.44 130.13895 
Q 409.44 128.02695 407.328 128.02695 
L 322.102153 128.02695 
Q 319.990153 128.02695 319.990153 130.13895 
L 319.990153 218.91705 
Q 319.990153 221.02905 322.102153 221.02905 
z
" style="fill: #ffffff; opacity: 0.8; stroke: #cccccc; stroke-width: 0.8; stroke-linejoin: miter"/>
    </g>
    <g id="text_18">
     <!-- Corpus -->
     <g style="fill: #262626" transform="translate(332.662153 140.221062) scale(0.1152 -0.1152)">
      <defs>
       <path id="CMR17-43" d="M 3974 4289 
C 3974 4403 3968 4410 3930 4410 
C 3904 4410 3898 4403 3853 4327 
L 3571 3792 
C 3258 4187 2874 4416 2381 4416 
C 1286 4416 294 3456 294 2148 
C 294 826 1286 -128 2387 -128 
C 3366 -128 3974 730 3974 1461 
C 3974 1524 3974 1550 3917 1550 
C 3866 1550 3866 1531 3859 1474 
C 3808 585 3168 38 2477 38 
C 1824 38 781 495 781 2147 
C 781 3805 1843 4250 2464 4250 
C 3187 4250 3712 3628 3834 2745 
C 3846 2668 3846 2655 3904 2655 
C 3974 2655 3974 2668 3974 2783 
L 3974 4289 
z
" transform="scale(0.015625)"/>
       <path id="CMR17-72" d="M 960 1497 
C 960 2112 1222 2688 1702 2688 
C 1747 2688 1792 2682 1837 2662 
C 1837 2662 1696 2617 1696 2452 
C 1696 2298 1818 2234 1914 2234 
C 1990 2234 2131 2279 2131 2458 
C 2131 2663 1926 2790 1709 2790 
C 1222 2790 1011 2317 947 2093 
L 941 2093 
L 941 2790 
L 198 2720 
L 198 2554 
C 576 2554 634 2515 634 2208 
L 634 428 
C 634 184 608 153 198 153 
L 198 -13 
C 352 0 646 0 813 0 
C 998 0 1325 0 1498 -13 
L 1498 153 
C 1037 153 960 153 960 440 
L 960 1497 
z
" transform="scale(0.015625)"/>
       <path id="CMR17-75" d="M 1882 2693 
L 1882 2528 
C 2259 2528 2317 2489 2317 2186 
L 2317 1032 
C 2317 500 2029 38 1555 38 
C 1030 38 986 348 986 678 
L 986 2763 
L 211 2693 
L 211 2528 
C 467 2528 640 2528 646 2274 
L 646 1058 
C 646 633 646 361 813 183 
C 896 101 1056 -64 1517 -64 
C 2061 -64 2272 377 2323 506 
L 2330 506 
L 2330 -63 
L 3091 -63 
L 3091 128 
C 2714 128 2656 166 2656 473 
L 2656 2763 
L 1882 2693 
z
" transform="scale(0.015625)"/>
      </defs>
      <use xlink:href="#CMR17-43" transform="scale(0.996264)"/>
      <use xlink:href="#CMR17-6f" transform="translate(66.509881 0) scale(0.996264)"/>
      <use xlink:href="#CMR17-72" transform="translate(112.200358 0) scale(0.996264)"/>
      <use xlink:href="#CMR17-70" transform="translate(147.481125 0) scale(0.996264)"/>
      <use xlink:href="#CMR17-75" transform="translate(198.376495 0) scale(0.996264)"/>
      <use xlink:href="#CMR17-73" transform="translate(249.271865 0) scale(0.996264)"/>
     </g>
    </g>
    <g id="line2d_24">
     <path d="M 324.214153 151.428684 
L 334.774153 151.428684 
L 345.334153 151.428684 
" style="fill: none; stroke: #4c72b0; stroke-width: 1.2; stroke-linecap: round"/>
    </g>
    <g id="text_19">
     <!-- RAVDESS -->
     <g style="fill: #262626" transform="translate(353.782153 155.124684) scale(0.1056 -0.1056)">
      <defs>
       <path id="CMR17-52" d="M 2509 2146 
C 3117 2268 3629 2676 3629 3186 
C 3629 3785 2950 4326 2054 4326 
L 333 4326 
L 333 4160 
C 774 4160 845 4160 845 3873 
L 845 415 
C 845 128 774 128 333 128 
L 333 -26 
C 518 -26 851 -26 1050 -26 
C 1248 -26 1581 -26 1766 -26 
L 1766 128 
C 1325 128 1254 128 1254 417 
L 1254 2112 
L 2003 2112 
C 2368 2112 2573 1964 2662 1881 
C 2918 1632 2918 1459 2918 1024 
C 2918 595 2918 377 3110 160 
C 3354 -102 3680 -128 3821 -128 
C 4294 -128 4365 396 4365 503 
C 4365 540 4365 585 4307 585 
C 4256 585 4250 547 4250 522 
C 4218 112 4032 -26 3834 -26 
C 3482 -26 3443 375 3405 764 
C 3386 898 3373 993 3360 1133 
C 3322 1452 3270 1917 2509 2146 
z
M 1984 2214 
L 1254 2214 
L 1254 3913 
C 1254 4129 1267 4160 1523 4160 
L 1990 4160 
C 2522 4160 3142 3977 3142 3190 
C 3142 2372 2464 2214 1984 2214 
z
" transform="scale(0.015625)"/>
       <path id="CMR17-41" d="M 2323 4378 
C 2291 4461 2278 4480 2214 4480 
C 2150 4480 2138 4461 2106 4378 
L 749 566 
C 627 223 371 153 147 153 
L 147 -13 
C 262 0 518 0 640 0 
C 800 0 1056 0 1210 -13 
L 1210 153 
C 909 153 864 361 864 439 
C 864 497 877 530 890 569 
L 1229 1536 
L 2906 1536 
L 3290 442 
C 3322 365 3322 352 3322 327 
C 3322 153 3046 153 2925 153 
L 2925 0 
C 3110 0 3443 0 3642 0 
C 3808 0 4128 0 4282 -13 
L 4282 153 
C 3942 153 3827 153 3744 387 
L 2323 4378 
z
M 2067 3893 
L 2848 1702 
L 1286 1702 
L 2067 3893 
z
" transform="scale(0.015625)"/>
       <path id="CMR17-56" d="M 3776 3745 
C 3834 3886 3936 4160 4365 4160 
L 4365 4332 
C 4218 4319 4051 4319 3891 4319 
C 3738 4319 3475 4319 3328 4332 
L 3328 4160 
C 3648 4160 3661 3936 3661 3898 
C 3661 3827 3642 3783 3622 3732 
L 2362 446 
L 1043 3886 
C 1024 3931 1011 3963 1011 3994 
C 1011 4160 1267 4160 1402 4160 
L 1402 4319 
C 1197 4319 896 4319 685 4319 
C 518 4319 218 4319 64 4332 
L 64 4160 
C 435 4160 506 4135 582 3931 
L 2106 -26 
C 2138 -115 2144 -128 2214 -128 
C 2285 -128 2291 -115 2323 -26 
L 3776 3745 
z
" transform="scale(0.015625)"/>
       <path id="CMR17-44" d="M 333 4352 
L 333 4186 
C 774 4186 845 4186 845 3900 
L 845 452 
C 845 166 774 166 333 166 
L 333 0 
L 2368 0 
C 3398 0 4224 943 4224 2141 
C 4224 3346 3411 4352 2368 4352 
L 333 4352 
z
M 1523 166 
C 1267 166 1254 197 1254 414 
L 1254 3938 
C 1254 4155 1267 4186 1523 4186 
L 2240 4186 
C 2771 4186 3750 3874 3750 2141 
C 3750 1242 3488 879 3366 707 
C 3213 510 2848 166 2240 166 
L 1523 166 
z
" transform="scale(0.015625)"/>
       <path id="CMR17-53" d="M 2803 4290 
C 2803 4404 2797 4411 2758 4411 
C 2720 4411 2707 4385 2682 4328 
L 2490 3907 
C 2246 4257 1875 4416 1472 4416 
C 819 4416 294 3901 294 3253 
C 294 3056 339 2776 557 2510 
C 794 2218 1018 2167 1530 2033 
C 1722 1982 2042 1899 2106 1874 
C 2470 1722 2662 1341 2662 985 
C 2662 527 2336 38 1779 38 
C 1094 38 454 419 410 1311 
C 403 1413 397 1419 352 1419 
C 301 1419 294 1413 294 1285 
L 294 -1 
C 294 -115 301 -122 339 -122 
C 384 -122 397 -90 486 108 
C 493 127 493 140 614 381 
C 934 -39 1472 -128 1779 -128 
C 2477 -128 2970 451 2970 1124 
C 2970 1454 2848 1708 2778 1823 
C 2509 2230 2221 2306 1914 2382 
C 1869 2402 1856 2402 1498 2490 
C 1152 2579 1005 2624 845 2796 
C 666 2992 602 3196 602 3399 
C 602 3812 934 4263 1478 4263 
C 2157 4263 2579 3786 2675 2993 
C 2694 2878 2701 2872 2746 2872 
C 2803 2872 2803 2891 2803 2999 
L 2803 4290 
z
" transform="scale(0.015625)"/>
      </defs>
      <use xlink:href="#CMR17-52" transform="scale(0.996264)"/>
      <use xlink:href="#CMR17-41" transform="translate(67.791102 0) scale(0.996264)"/>
      <use xlink:href="#CMR17-56" transform="translate(126.453822 0) scale(0.996264)"/>
      <use xlink:href="#CMR17-44" transform="translate(195.526252 0) scale(0.996264)"/>
      <use xlink:href="#CMR17-45" transform="translate(265.919808 0) scale(0.996264)"/>
      <use xlink:href="#CMR17-53" transform="translate(328.506109 0) scale(0.996264)"/>
      <use xlink:href="#CMR17-53" transform="translate(379.401478 0) scale(0.996264)"/>
     </g>
    </g>
    <g id="line2d_25">
     <path d="M 324.214153 166.146342 
L 334.774153 166.146342 
L 345.334153 166.146342 
" style="fill: none; stroke: #dd8452; stroke-width: 1.2; stroke-linecap: round"/>
    </g>
    <g id="text_20">
     <!-- IEMOCAP -->
     <g style="fill: #262626" transform="translate(353.782153 169.842342) scale(0.1056 -0.1056)">
      <defs>
       <path id="CMR17-49" d="M 1261 3905 
C 1261 4192 1338 4192 1798 4192 
L 1798 4352 
C 1594 4352 1267 4352 1050 4352 
C 832 4352 506 4352 301 4352 
L 301 4192 
C 762 4192 838 4192 838 3905 
L 838 447 
C 838 160 762 160 301 160 
L 301 0 
C 506 0 832 0 1050 0 
C 1267 0 1594 0 1798 0 
L 1798 160 
C 1338 160 1261 160 1261 447 
L 1261 3905 
z
" transform="scale(0.015625)"/>
       <path id="CMR17-4d" d="M 1338 4224 
C 1299 4320 1293 4320 1158 4320 
L 339 4320 
L 339 4160 
C 781 4160 851 4160 851 3875 
L 851 610 
C 851 451 851 153 339 153 
L 339 -13 
C 486 0 755 0 915 0 
C 1075 0 1344 0 1491 -13 
L 1491 153 
C 979 153 979 451 979 610 
L 979 4135 
L 986 4135 
L 2490 89 
C 2515 25 2528 -13 2579 -13 
C 2630 -13 2643 25 2669 89 
L 4186 4166 
L 4192 4166 
L 4192 438 
C 4192 153 4122 153 3680 153 
L 3680 -13 
C 3853 0 4198 0 4384 0 
C 4570 0 4922 0 5094 -13 
L 5094 153 
C 4653 153 4582 153 4582 438 
L 4582 3875 
C 4582 4160 4653 4160 5094 4160 
L 5094 4320 
L 4282 4320 
C 4147 4320 4141 4314 4102 4218 
L 2720 502 
L 1338 4224 
z
" transform="scale(0.015625)"/>
       <path id="CMR17-4f" d="M 4307 2135 
C 4307 3437 3366 4416 2304 4416 
C 1216 4416 294 3424 294 2135 
C 294 845 1229 -128 2298 -128 
C 3392 -128 4307 864 4307 2135 
z
M 2304 -13 
C 1574 -13 781 711 781 2217 
C 781 3716 1651 4301 2298 4301 
C 2976 4301 3821 3698 3821 2217 
C 3821 686 3008 -13 2304 -13 
z
" transform="scale(0.015625)"/>
       <path id="CMR17-50" d="M 1267 2042 
L 2291 2042 
C 3117 2042 3718 2578 3718 3184 
C 3718 3791 3130 4352 2291 4352 
L 333 4352 
L 333 4186 
C 774 4186 845 4186 845 3899 
L 845 446 
C 845 160 774 160 333 160 
L 333 0 
C 518 0 858 0 1056 0 
C 1254 0 1594 0 1779 0 
L 1779 160 
C 1338 160 1267 160 1267 446 
L 1267 2042 
z
M 1254 2176 
L 1254 3938 
C 1254 4155 1267 4186 1523 4186 
L 2170 4186 
C 2995 4186 3232 3714 3232 3184 
C 3232 2604 2950 2176 2170 2176 
L 1254 2176 
z
" transform="scale(0.015625)"/>
      </defs>
      <use xlink:href="#CMR17-49" transform="scale(0.996264)"/>
      <use xlink:href="#CMR17-45" transform="translate(32.638409 0) scale(0.996264)"/>
      <use xlink:href="#CMR17-4d" transform="translate(95.22471 0) scale(0.996264)"/>
      <use xlink:href="#CMR17-4f" transform="translate(179.91165 0) scale(0.996264)"/>
      <use xlink:href="#CMR17-43" transform="translate(251.626439 0) scale(0.996264)"/>
      <use xlink:href="#CMR17-41" transform="translate(318.136319 0) scale(0.996264)"/>
      <use xlink:href="#CMR17-50" transform="translate(387.208749 0) scale(0.996264)"/>
     </g>
    </g>
    <g id="text_21">
     <!-- Split -->
     <g style="fill: #262626" transform="translate(332.662153 185.138112) scale(0.1152 -0.1152)">
      <defs>
       <path id="CMR17-6c" d="M 979 4396 
L 218 4326 
L 218 4160 
C 595 4160 653 4122 653 3817 
L 653 426 
C 653 184 627 153 218 153 
L 218 -13 
C 371 0 653 0 813 0 
C 979 0 1261 0 1414 -13 
L 1414 153 
C 1005 153 979 178 979 426 
L 979 4396 
z
" transform="scale(0.015625)"/>
       <path id="CMR17-69" d="M 992 3909 
C 992 4049 877 4170 730 4170 
C 589 4170 467 4056 467 3909 
C 467 3769 582 3648 730 3648 
C 870 3648 992 3763 992 3909 
z
M 243 2706 
L 243 2541 
C 602 2541 653 2502 653 2197 
L 653 427 
C 653 184 627 153 218 153 
L 218 -13 
C 371 0 646 0 806 0 
C 960 0 1222 0 1370 -13 
L 1370 153 
C 992 153 979 191 979 420 
L 979 2776 
L 243 2706 
z
" transform="scale(0.015625)"/>
       <path id="CMR17-74" d="M 966 2560 
L 1862 2560 
L 1862 2725 
L 966 2725 
L 966 3904 
L 851 3904 
C 838 3245 614 2668 70 2668 
L 70 2560 
L 627 2560 
L 627 771 
C 627 650 627 -64 1370 -64 
C 1747 -64 1965 306 1965 777 
L 1965 1140 
L 1850 1140 
L 1850 783 
C 1850 344 1677 51 1408 51 
C 1222 51 966 178 966 758 
L 966 2560 
z
" transform="scale(0.015625)"/>
      </defs>
      <use xlink:href="#CMR17-53" transform="scale(0.996264)"/>
      <use xlink:href="#CMR17-70" transform="translate(50.89537 0) scale(0.996264)"/>
      <use xlink:href="#CMR17-6c" transform="translate(101.79074 0) scale(0.996264)"/>
      <use xlink:href="#CMR17-69" transform="translate(126.661798 0) scale(0.996264)"/>
      <use xlink:href="#CMR17-74" transform="translate(151.532857 0) scale(0.996264)"/>
     </g>
    </g>
    <g id="line2d_26">
     <path d="M 324.214153 196.345734 
L 334.774153 196.345734 
L 345.334153 196.345734 
" style="fill: none; stroke: #333333; stroke-width: 1.2; stroke-linecap: round"/>
    </g>
    <g id="text_22">
     <!-- Training -->
     <g style="fill: #262626" transform="translate(353.782153 200.041734) scale(0.1056 -0.1056)">
      <defs>
       <path id="CMR17-54" d="M 3981 4326 
L 288 4326 
L 179 2918 
L 294 2918 
C 378 3976 467 4160 1453 4160 
C 1568 4160 1754 4160 1805 4154 
C 1926 4135 1926 4058 1926 3912 
L 1926 459 
C 1926 230 1907 160 1376 160 
L 1197 160 
L 1197 0 
C 1504 0 1824 0 2138 0 
C 2451 0 2771 0 3078 0 
L 3078 160 
L 2899 160 
C 2368 160 2349 230 2349 459 
L 2349 3912 
C 2349 4052 2349 4129 2464 4154 
C 2515 4160 2701 4160 2816 4160 
C 3795 4160 3891 3976 3974 2918 
L 4090 2918 
L 3981 4326 
z
" transform="scale(0.015625)"/>
       <path id="CMR17-61" d="M 2304 1653 
C 2304 2072 2304 2294 2035 2543 
C 1798 2752 1523 2816 1306 2816 
C 800 2816 435 2407 435 1971 
C 435 1728 627 1728 666 1728 
C 749 1728 896 1778 896 1954 
C 896 2112 774 2181 666 2181 
C 640 2181 608 2174 589 2168 
C 723 2592 1069 2714 1293 2714 
C 1613 2714 1965 2429 1965 1885 
L 1965 1600 
C 1587 1600 1133 1549 774 1357 
C 371 1133 256 813 256 570 
C 256 77 832 -64 1171 -64 
C 1523 -64 1850 139 1990 511 
C 2003 233 2182 -18 2464 -18 
C 2598 -18 2938 70 2938 567 
L 2938 920 
L 2822 920 
L 2822 562 
C 2822 178 2650 128 2566 128 
C 2304 128 2304 458 2304 738 
L 2304 1653 
z
M 1965 870 
C 1965 317 1568 38 1216 38 
C 896 38 646 275 646 570 
C 646 761 730 1100 1101 1305 
C 1408 1478 1760 1504 1965 1504 
L 1965 870 
z
" transform="scale(0.015625)"/>
       <path id="CMR17-6e" d="M 2656 1933 
C 2656 2259 2592 2790 1837 2790 
C 1331 2790 1069 2400 973 2144 
L 966 2144 
L 966 2790 
L 211 2720 
L 211 2554 
C 589 2554 646 2515 646 2208 
L 646 428 
C 646 184 621 153 211 153 
L 211 -13 
C 365 0 646 0 813 0 
C 979 0 1267 0 1421 -13 
L 1421 153 
C 1011 153 986 178 986 428 
L 986 1658 
C 986 2247 1344 2688 1792 2688 
C 2266 2688 2317 2266 2317 1958 
L 2317 428 
C 2317 184 2291 153 1882 153 
L 1882 -13 
C 2035 0 2317 0 2483 0 
C 2650 0 2938 0 3091 -13 
L 3091 153 
C 2682 153 2656 178 2656 428 
L 2656 1933 
z
" transform="scale(0.015625)"/>
       <path id="CMR17-67" d="M 710 1164 
C 832 1068 1043 960 1299 960 
C 1805 960 2240 1357 2240 1888 
C 2240 2054 2189 2310 1997 2509 
C 2176 2692 2438 2752 2586 2752 
C 2611 2752 2650 2752 2682 2734 
C 2656 2728 2598 2703 2598 2605 
C 2598 2527 2656 2471 2739 2471 
C 2835 2471 2886 2533 2886 2614 
C 2886 2731 2790 2854 2586 2854 
C 2330 2854 2106 2738 1926 2580 
C 1734 2753 1504 2816 1299 2816 
C 794 2816 358 2419 358 1888 
C 358 1522 570 1292 634 1228 
C 442 1004 442 743 442 711 
C 442 545 506 302 723 168 
C 390 85 128 -169 128 -486 
C 128 -943 736 -1280 1466 -1280 
C 2170 -1280 2803 -956 2803 -479 
C 2803 384 1856 384 1363 384 
C 1216 384 954 384 922 391 
C 723 423 589 602 589 826 
C 589 883 589 1024 710 1164 
z
M 1299 1068 
C 736 1068 736 1760 736 1889 
C 736 2016 736 2708 1299 2708 
C 1862 2708 1862 2016 1862 1889 
C 1862 1760 1862 1068 1299 1068 
z
M 1466 -1171 
C 826 -1171 384 -835 384 -486 
C 384 -289 493 -105 634 -4 
C 794 104 858 104 1293 104 
C 1818 104 2547 104 2547 -486 
C 2547 -835 2106 -1171 1466 -1171 
z
" transform="scale(0.015625)"/>
      </defs>
      <use xlink:href="#CMR17-54" transform="scale(0.996264)"/>
      <use xlink:href="#CMR17-72" transform="translate(58.702625 0) scale(0.996264)"/>
      <use xlink:href="#CMR17-61" transform="translate(93.983393 0) scale(0.996264)"/>
      <use xlink:href="#CMR17-69" transform="translate(139.67387 0) scale(0.996264)"/>
      <use xlink:href="#CMR17-6e" transform="translate(164.544929 0) scale(0.996264)"/>
      <use xlink:href="#CMR17-69" transform="translate(215.440298 0) scale(0.996264)"/>
      <use xlink:href="#CMR17-6e" transform="translate(240.311357 0) scale(0.996264)"/>
      <use xlink:href="#CMR17-67" transform="translate(291.206727 0) scale(0.996264)"/>
     </g>
    </g>
    <g id="line2d_27">
     <path d="M 324.214153 211.063392 
L 334.774153 211.063392 
L 345.334153 211.063392 
" style="fill: none; stroke-dasharray: 4.8,1.8; stroke-dashoffset: 0; stroke: #333333; stroke-width: 1.2"/>
    </g>
    <g id="text_23">
     <!-- Validation -->
     <g style="fill: #262626" transform="translate(353.782153 214.759392) scale(0.1056 -0.1056)">
      <defs>
       <path id="CMR17-64" d="M 1869 4326 
L 1869 4160 
C 2246 4160 2304 4122 2304 3820 
L 2304 2345 
C 2278 2377 2016 2790 1498 2790 
C 845 2790 211 2208 211 1364 
C 211 525 806 -64 1434 -64 
C 1978 -64 2259 337 2291 380 
L 2291 -63 
L 3066 -63 
L 3066 128 
C 2688 128 2630 166 2630 473 
L 2630 4396 
L 1869 4326 
z
M 2291 755 
C 2291 563 2176 390 2029 262 
C 1811 70 1594 38 1472 38 
C 1286 38 621 134 621 1356 
C 621 2612 1363 2688 1530 2688 
C 1824 2688 2061 2522 2208 2291 
C 2291 2157 2291 2138 2291 2023 
L 2291 755 
z
" transform="scale(0.015625)"/>
      </defs>
      <use xlink:href="#CMR17-56" transform="scale(0.996264)"/>
      <use xlink:href="#CMR17-61" transform="translate(61.265174 0) scale(0.996264)"/>
      <use xlink:href="#CMR17-6c" transform="translate(106.955652 0) scale(0.996264)"/>
      <use xlink:href="#CMR17-69" transform="translate(131.82671 0) scale(0.996264)"/>
      <use xlink:href="#CMR17-64" transform="translate(156.697768 0) scale(0.996264)"/>
      <use xlink:href="#CMR17-61" transform="translate(207.593138 0) scale(0.996264)"/>
      <use xlink:href="#CMR17-74" transform="translate(253.283615 0) scale(0.996264)"/>
      <use xlink:href="#CMR17-69" transform="translate(288.564383 0) scale(0.996264)"/>
      <use xlink:href="#CMR17-6f" transform="translate(313.435442 0) scale(0.996264)"/>
      <use xlink:href="#CMR17-6e" transform="translate(359.125919 0) scale(0.996264)"/>
     </g>
    </g>
   </g>
  </g>
 </g>
 <defs>
  <clipPath id="p7f05aa83a0">
   <rect x="57.6" y="41.472" width="357.12" height="266.112"/>
  </clipPath>
 </defs>
</svg>
