<?xml version="1.0" encoding="utf-8" standalone="no"?>
<!DOCTYPE svg PUBLIC "-//W3C//DTD SVG 1.1//EN"
  "http://www.w3.org/Graphics/SVG/1.1/DTD/svg11.dtd">
<svg xmlns:xlink="http://www.w3.org/1999/xlink" width="460.8pt" height="345.6pt" viewBox="0 0 460.8 345.6" xmlns="http://www.w3.org/2000/svg" version="1.1">
 <metadata>
  <rdf:RDF xmlns:dc="http://purl.org/dc/elements/1.1/" xmlns:cc="http://creativecommons.org/ns#" xmlns:rdf="http://www.w3.org/1999/02/22-rdf-syntax-ns#">
   <cc:Work>
    <dc:type rdf:resource="http://purl.org/dc/dcmitype/StillImage"/>
    <dc:date>2023-07-15T19:24:20.167821</dc:date>
    <dc:format>image/svg+xml</dc:format>
    <dc:creator>
     <cc:Agent>
      <dc:title>Matplotlib v3.7.0, https://matplotlib.org/</dc:title>
     </cc:Agent>
    </dc:creator>
   </cc:Work>
  </rdf:RDF>
 </metadata>
 <defs>
  <style type="text/css">*{stroke-linejoin: round; stroke-linecap: butt}</style>
 </defs>
 <g id="figure_1">
  <g id="patch_1">
   <path d="M 0 345.6 
L 460.8 345.6 
L 460.8 0 
L 0 0 
z
" style="fill: #ffffff"/>
  </g>
  <g id="axes_1">
   <g id="patch_2">
    <path d="M 57.6 307.584 
L 414.72 307.584 
L 414.72 41.472 
L 57.6 41.472 
z
" style="fill: #ffffff"/>
   </g>
   <g id="matplotlib.axis_1">
    <g id="xtick_1">
     <g id="line2d_1">
      <path d="M 73.3463 307.584 
L 73.3463 41.472 
" clip-path="url(#p41e8c6da57)" style="fill: none; stroke: #cccccc; stroke-width: 0.8; stroke-linecap: round"/>
     </g>
     <g id="text_1">
      <!-- $\mathdefault{0}$ -->
      <g style="fill: #262626" transform="translate(70.716156 323.189931) scale(0.1056 -0.1056)">
       <defs>
        <path id="CMR17-30" d="M 2688 2025 
C 2688 2416 2682 3080 2413 3591 
C 2176 4039 1798 4198 1466 4198 
C 1158 4198 768 4058 525 3597 
C 269 3118 243 2524 243 2025 
C 243 1661 250 1106 448 619 
C 723 -39 1216 -128 1466 -128 
C 1760 -128 2208 -7 2470 600 
C 2662 1042 2688 1559 2688 2025 
z
M 1466 -26 
C 1056 -26 813 325 723 812 
C 653 1188 653 1738 653 2096 
C 653 2588 653 2997 736 3387 
C 858 3929 1216 4096 1466 4096 
C 1728 4096 2067 3923 2189 3400 
C 2272 3036 2278 2607 2278 2096 
C 2278 1680 2278 1169 2202 792 
C 2067 95 1690 -26 1466 -26 
z
" transform="scale(0.015625)"/>
       </defs>
       <use xlink:href="#CMR17-30" transform="scale(0.996264)"/>
      </g>
     </g>
    </g>
    <g id="xtick_2">
     <g id="line2d_2">
      <path d="M 144.879746 307.584 
L 144.879746 41.472 
" clip-path="url(#p41e8c6da57)" style="fill: none; stroke: #cccccc; stroke-width: 0.8; stroke-linecap: round"/>
     </g>
     <g id="text_2">
      <!-- $\mathdefault{100}$ -->
      <g style="fill: #262626" transform="translate(136.989314 323.189931) scale(0.1056 -0.1056)">
       <defs>
        <path id="CMR17-31" d="M 1702 4058 
C 1702 4192 1696 4192 1606 4192 
C 1357 3916 979 3827 621 3827 
C 602 3827 570 3827 563 3808 
C 557 3795 557 3782 557 3648 
C 755 3648 1088 3686 1344 3839 
L 1344 461 
C 1344 236 1331 160 781 160 
L 589 160 
L 589 0 
C 896 0 1216 0 1523 0 
C 1830 0 2150 0 2458 0 
L 2458 160 
L 2266 160 
C 1715 160 1702 230 1702 458 
L 1702 4058 
z
" transform="scale(0.015625)"/>
       </defs>
       <use xlink:href="#CMR17-31" transform="scale(0.996264)"/>
       <use xlink:href="#CMR17-30" transform="translate(45.690477 0) scale(0.996264)"/>
       <use xlink:href="#CMR17-30" transform="translate(91.380954 0) scale(0.996264)"/>
      </g>
     </g>
    </g>
    <g id="xtick_3">
     <g id="line2d_3">
      <path d="M 216.413192 307.584 
L 216.413192 41.472 
" clip-path="url(#p41e8c6da57)" style="fill: none; stroke: #cccccc; stroke-width: 0.8; stroke-linecap: round"/>
     </g>
     <g id="text_3">
      <!-- $\mathdefault{200}$ -->
      <g style="fill: #262626" transform="translate(208.52276 323.189931) scale(0.1056 -0.1056)">
       <defs>
        <path id="CMR17-32" d="M 2669 989 
L 2554 989 
C 2490 536 2438 459 2413 420 
C 2381 369 1920 369 1830 369 
L 602 369 
C 832 619 1280 1072 1824 1597 
C 2214 1967 2669 2402 2669 3035 
C 2669 3790 2067 4224 1395 4224 
C 691 4224 262 3604 262 3030 
C 262 2780 448 2748 525 2748 
C 589 2748 781 2787 781 3010 
C 781 3207 614 3264 525 3264 
C 486 3264 448 3258 422 3245 
C 544 3790 915 4058 1306 4058 
C 1862 4058 2227 3617 2227 3035 
C 2227 2479 1901 2000 1536 1584 
L 262 146 
L 262 0 
L 2515 0 
L 2669 989 
z
" transform="scale(0.015625)"/>
       </defs>
       <use xlink:href="#CMR17-32" transform="scale(0.996264)"/>
       <use xlink:href="#CMR17-30" transform="translate(45.690477 0) scale(0.996264)"/>
       <use xlink:href="#CMR17-30" transform="translate(91.380954 0) scale(0.996264)"/>
      </g>
     </g>
    </g>
    <g id="xtick_4">
     <g id="line2d_4">
      <path d="M 287.946638 307.584 
L 287.946638 41.472 
" clip-path="url(#p41e8c6da57)" style="fill: none; stroke: #cccccc; stroke-width: 0.8; stroke-linecap: round"/>
     </g>
     <g id="text_4">
      <!-- $\mathdefault{300}$ -->
      <g style="fill: #262626" transform="translate(280.056206 323.189931) scale(0.1056 -0.1056)">
       <defs>
        <path id="CMR17-33" d="M 1414 2157 
C 1984 2157 2234 1662 2234 1090 
C 2234 320 1824 25 1453 25 
C 1114 25 563 194 390 693 
C 422 680 454 680 486 680 
C 640 680 755 782 755 948 
C 755 1133 614 1216 486 1216 
C 378 1216 211 1165 211 926 
C 211 335 787 -128 1466 -128 
C 2176 -128 2720 430 2720 1085 
C 2720 1707 2208 2157 1600 2227 
C 2086 2328 2554 2756 2554 3329 
C 2554 3820 2048 4179 1472 4179 
C 890 4179 378 3829 378 3329 
C 378 3110 544 3072 627 3072 
C 762 3072 877 3155 877 3321 
C 877 3486 762 3569 627 3569 
C 602 3569 570 3569 544 3557 
C 730 3959 1235 4032 1459 4032 
C 1683 4032 2106 3925 2106 3320 
C 2106 3143 2080 2828 1862 2550 
C 1670 2304 1453 2304 1242 2284 
C 1210 2284 1062 2269 1037 2269 
C 992 2263 966 2257 966 2208 
C 966 2163 973 2157 1101 2157 
L 1414 2157 
z
" transform="scale(0.015625)"/>
       </defs>
       <use xlink:href="#CMR17-33" transform="scale(0.996264)"/>
       <use xlink:href="#CMR17-30" transform="translate(45.690477 0) scale(0.996264)"/>
       <use xlink:href="#CMR17-30" transform="translate(91.380954 0) scale(0.996264)"/>
      </g>
     </g>
    </g>
    <g id="xtick_5">
     <g id="line2d_5">
      <path d="M 359.480085 307.584 
L 359.480085 41.472 
" clip-path="url(#p41e8c6da57)" style="fill: none; stroke: #cccccc; stroke-width: 0.8; stroke-linecap: round"/>
     </g>
     <g id="text_5">
      <!-- $\mathdefault{400}$ -->
      <g style="fill: #262626" transform="translate(351.589653 323.189931) scale(0.1056 -0.1056)">
       <defs>
        <path id="CMR17-34" d="M 2150 4122 
C 2150 4256 2144 4256 2029 4256 
L 128 1254 
L 128 1088 
L 1779 1088 
L 1779 457 
C 1779 224 1766 160 1318 160 
L 1197 160 
L 1197 0 
C 1402 0 1747 0 1965 0 
C 2182 0 2528 0 2733 0 
L 2733 160 
L 2611 160 
C 2163 160 2150 224 2150 457 
L 2150 1088 
L 2803 1088 
L 2803 1254 
L 2150 1254 
L 2150 4122 
z
M 1798 3703 
L 1798 1254 
L 256 1254 
L 1798 3703 
z
" transform="scale(0.015625)"/>
       </defs>
       <use xlink:href="#CMR17-34" transform="scale(0.996264)"/>
       <use xlink:href="#CMR17-30" transform="translate(45.690477 0) scale(0.996264)"/>
       <use xlink:href="#CMR17-30" transform="translate(91.380954 0) scale(0.996264)"/>
      </g>
     </g>
    </g>
    <g id="text_6">
     <!-- Epoch -->
     <g style="fill: #262626" transform="translate(220.299456 337.205701) scale(0.1152 -0.1152)">
      <defs>
       <path id="CMR17-45" d="M 3885 1615 
L 3770 1615 
C 3629 676 3546 166 2419 166 
L 1530 166 
C 1274 166 1261 197 1261 414 
L 1261 2176 
L 1862 2176 
C 2464 2176 2522 1960 2522 1430 
L 2637 1430 
L 2637 3081 
L 2522 3081 
C 2522 2557 2464 2342 1862 2342 
L 1261 2342 
L 1261 3913 
C 1261 4128 1274 4160 1530 4160 
L 2406 4160 
C 3398 4160 3514 3769 3603 2929 
L 3718 2929 
L 3565 4325 
L 326 4325 
L 326 4160 
C 768 4160 838 4160 838 3874 
L 838 451 
C 838 166 768 166 326 166 
L 326 0 
L 3654 0 
L 3885 1615 
z
" transform="scale(0.015625)"/>
       <path id="CMR17-70" d="M 1408 -1063 
C 998 -1063 973 -1037 973 -789 
L 973 402 
C 1158 134 1427 -38 1766 -38 
C 2406 -38 3053 523 3053 1388 
C 3053 2191 2496 2802 1837 2802 
C 1453 2802 1139 2592 960 2338 
L 960 2802 
L 198 2732 
L 198 2567 
C 576 2567 634 2528 634 2223 
L 634 -789 
C 634 -1031 608 -1063 198 -1063 
L 198 -1228 
C 352 -1216 634 -1216 800 -1216 
C 966 -1216 1254 -1216 1408 -1228 
L 1408 -1063 
z
M 973 2012 
C 973 2102 973 2235 1222 2471 
C 1254 2497 1472 2688 1792 2688 
C 2259 2688 2643 2108 2643 1382 
C 2643 656 2234 64 1728 64 
C 1498 64 1248 172 1056 472 
C 973 612 973 650 973 752 
L 973 2012 
z
" transform="scale(0.015625)"/>
       <path id="CMR17-6f" d="M 2758 1356 
C 2758 2176 2163 2816 1466 2816 
C 768 2816 173 2176 173 1356 
C 173 551 768 -64 1466 -64 
C 2163 -64 2758 551 2758 1356 
z
M 1466 51 
C 1165 51 909 230 762 480 
C 602 767 582 1126 582 1408 
C 582 1677 595 2010 762 2298 
C 890 2509 1139 2714 1466 2714 
C 1754 2714 1997 2554 2150 2330 
C 2349 2029 2349 1607 2349 1408 
C 2349 1158 2336 775 2163 467 
C 1984 173 1709 51 1466 51 
z
" transform="scale(0.015625)"/>
       <path id="CMR17-63" d="M 2234 2240 
C 2112 2240 1933 2240 1933 2017 
C 1933 1838 2080 1787 2163 1787 
C 2208 1787 2394 1807 2394 2024 
C 2394 2467 1958 2803 1466 2803 
C 787 2803 211 2178 211 1363 
C 211 516 813 -64 1466 -64 
C 2259 -64 2458 677 2458 748 
C 2458 774 2451 793 2406 793 
C 2362 793 2355 787 2330 703 
C 2163 180 1798 51 1523 51 
C 1114 51 621 427 621 1369 
C 621 2338 1094 2688 1472 2688 
C 1722 2688 2093 2573 2234 2240 
z
" transform="scale(0.015625)"/>
       <path id="CMR17-68" d="M 2656 1933 
C 2656 2259 2592 2790 1837 2790 
C 1312 2790 1056 2368 979 2157 
L 973 2157 
L 973 4396 
L 211 4326 
L 211 4160 
C 589 4160 646 4122 646 3817 
L 646 426 
C 646 184 621 153 211 153 
L 211 -13 
C 365 0 646 0 813 0 
C 979 0 1267 0 1421 -13 
L 1421 153 
C 1011 153 986 178 986 428 
L 986 1658 
C 986 2247 1344 2688 1792 2688 
C 2266 2688 2317 2266 2317 1958 
L 2317 428 
C 2317 184 2291 153 1882 153 
L 1882 -13 
C 2035 0 2317 0 2483 0 
C 2650 0 2938 0 3091 -13 
L 3091 153 
C 2682 153 2656 178 2656 428 
L 2656 1933 
z
" transform="scale(0.015625)"/>
      </defs>
      <use xlink:href="#CMR17-45" transform="scale(0.996264)"/>
      <use xlink:href="#CMR17-70" transform="translate(62.586301 0) scale(0.996264)"/>
      <use xlink:href="#CMR17-6f" transform="translate(116.084109 0) scale(0.996264)"/>
      <use xlink:href="#CMR17-63" transform="translate(164.377025 0) scale(0.996264)"/>
      <use xlink:href="#CMR17-68" transform="translate(202.260231 0) scale(0.996264)"/>
     </g>
    </g>
   </g>
   <g id="matplotlib.axis_2">
    <g id="ytick_1">
     <g id="line2d_6">
      <path d="M 57.6 304.835229 
L 414.72 304.835229 
" clip-path="url(#p41e8c6da57)" style="fill: none; stroke: #cccccc; stroke-width: 0.8; stroke-linecap: round"/>
     </g>
     <g id="text_7">
      <!-- $\mathdefault{0}$ -->
      <g style="fill: #262626" transform="translate(44.039712 308.488194) scale(0.1056 -0.1056)">
       <use xlink:href="#CMR17-30" transform="scale(0.996264)"/>
      </g>
     </g>
    </g>
    <g id="ytick_2">
     <g id="line2d_7">
      <path d="M 57.6 264.2503 
L 414.72 264.2503 
" clip-path="url(#p41e8c6da57)" style="fill: none; stroke: #cccccc; stroke-width: 0.8; stroke-linecap: round"/>
     </g>
     <g id="text_8">
      <!-- $\mathdefault{500}$ -->
      <g style="fill: #262626" transform="translate(33.519136 267.903265) scale(0.1056 -0.1056)">
       <defs>
        <path id="CMR17-35" d="M 730 3692 
C 794 3666 1056 3584 1325 3584 
C 1920 3584 2246 3911 2432 4100 
C 2432 4157 2432 4192 2394 4192 
C 2387 4192 2374 4192 2323 4163 
C 2099 4058 1837 3973 1517 3973 
C 1325 3973 1037 3999 723 4139 
C 653 4171 640 4171 634 4171 
C 602 4171 595 4164 595 4037 
L 595 2203 
C 595 2089 595 2057 659 2057 
C 691 2057 704 2070 736 2114 
C 941 2401 1222 2522 1542 2522 
C 1766 2522 2246 2382 2246 1289 
C 2246 1085 2246 715 2054 421 
C 1894 159 1645 25 1370 25 
C 947 25 518 320 403 814 
C 429 807 480 795 506 795 
C 589 795 749 840 749 1038 
C 749 1210 627 1280 506 1280 
C 358 1280 262 1190 262 1011 
C 262 454 704 -128 1382 -128 
C 2042 -128 2669 440 2669 1264 
C 2669 2030 2170 2624 1549 2624 
C 1222 2624 947 2503 730 2274 
L 730 3692 
z
" transform="scale(0.015625)"/>
       </defs>
       <use xlink:href="#CMR17-35" transform="scale(0.996264)"/>
       <use xlink:href="#CMR17-30" transform="translate(45.690477 0) scale(0.996264)"/>
       <use xlink:href="#CMR17-30" transform="translate(91.380954 0) scale(0.996264)"/>
      </g>
     </g>
    </g>
    <g id="ytick_3">
     <g id="line2d_8">
      <path d="M 57.6 223.665371 
L 414.72 223.665371 
" clip-path="url(#p41e8c6da57)" style="fill: none; stroke: #cccccc; stroke-width: 0.8; stroke-linecap: round"/>
     </g>
     <g id="text_9">
      <!-- $\mathdefault{1000}$ -->
      <g style="fill: #262626" transform="translate(28.258848 227.318336) scale(0.1056 -0.1056)">
       <use xlink:href="#CMR17-31" transform="scale(0.996264)"/>
       <use xlink:href="#CMR17-30" transform="translate(45.690477 0) scale(0.996264)"/>
       <use xlink:href="#CMR17-30" transform="translate(91.380954 0) scale(0.996264)"/>
       <use xlink:href="#CMR17-30" transform="translate(137.071431 0) scale(0.996264)"/>
      </g>
     </g>
    </g>
    <g id="ytick_4">
     <g id="line2d_9">
      <path d="M 57.6 183.080442 
L 414.72 183.080442 
" clip-path="url(#p41e8c6da57)" style="fill: none; stroke: #cccccc; stroke-width: 0.8; stroke-linecap: round"/>
     </g>
     <g id="text_10">
      <!-- $\mathdefault{1500}$ -->
      <g style="fill: #262626" transform="translate(28.258848 186.733407) scale(0.1056 -0.1056)">
       <use xlink:href="#CMR17-31" transform="scale(0.996264)"/>
       <use xlink:href="#CMR17-35" transform="translate(45.690477 0) scale(0.996264)"/>
       <use xlink:href="#CMR17-30" transform="translate(91.380954 0) scale(0.996264)"/>
       <use xlink:href="#CMR17-30" transform="translate(137.071431 0) scale(0.996264)"/>
      </g>
     </g>
    </g>
    <g id="ytick_5">
     <g id="line2d_10">
      <path d="M 57.6 142.495513 
L 414.72 142.495513 
" clip-path="url(#p41e8c6da57)" style="fill: none; stroke: #cccccc; stroke-width: 0.8; stroke-linecap: round"/>
     </g>
     <g id="text_11">
      <!-- $\mathdefault{2000}$ -->
      <g style="fill: #262626" transform="translate(28.258848 146.148478) scale(0.1056 -0.1056)">
       <use xlink:href="#CMR17-32" transform="scale(0.996264)"/>
       <use xlink:href="#CMR17-30" transform="translate(45.690477 0) scale(0.996264)"/>
       <use xlink:href="#CMR17-30" transform="translate(91.380954 0) scale(0.996264)"/>
       <use xlink:href="#CMR17-30" transform="translate(137.071431 0) scale(0.996264)"/>
      </g>
     </g>
    </g>
    <g id="ytick_6">
     <g id="line2d_11">
      <path d="M 57.6 101.910584 
L 414.72 101.910584 
" clip-path="url(#p41e8c6da57)" style="fill: none; stroke: #cccccc; stroke-width: 0.8; stroke-linecap: round"/>
     </g>
     <g id="text_12">
      <!-- $\mathdefault{2500}$ -->
      <g style="fill: #262626" transform="translate(28.258848 105.563549) scale(0.1056 -0.1056)">
       <use xlink:href="#CMR17-32" transform="scale(0.996264)"/>
       <use xlink:href="#CMR17-35" transform="translate(45.690477 0) scale(0.996264)"/>
       <use xlink:href="#CMR17-30" transform="translate(91.380954 0) scale(0.996264)"/>
       <use xlink:href="#CMR17-30" transform="translate(137.071431 0) scale(0.996264)"/>
      </g>
     </g>
    </g>
    <g id="ytick_7">
     <g id="line2d_12">
      <path d="M 57.6 61.325655 
L 414.72 61.325655 
" clip-path="url(#p41e8c6da57)" style="fill: none; stroke: #cccccc; stroke-width: 0.8; stroke-linecap: round"/>
     </g>
     <g id="text_13">
      <!-- $\mathdefault{3000}$ -->
      <g style="fill: #262626" transform="translate(28.258848 64.97862) scale(0.1056 -0.1056)">
       <use xlink:href="#CMR17-33" transform="scale(0.996264)"/>
       <use xlink:href="#CMR17-30" transform="translate(45.690477 0) scale(0.996264)"/>
       <use xlink:href="#CMR17-30" transform="translate(91.380954 0) scale(0.996264)"/>
       <use xlink:href="#CMR17-30" transform="translate(137.071431 0) scale(0.996264)"/>
      </g>
     </g>
    </g>
    <g id="text_14">
     <!-- Loss $\mathcal L$ -->
     <g style="fill: #262626" transform="translate(22.027227 191.381631) rotate(-90) scale(0.1152 -0.1152)">
      <defs>
       <path id="CMR17-4c" d="M 3469 1615 
L 3354 1615 
C 3302 983 3219 166 2125 166 
L 1530 166 
C 1274 166 1261 197 1261 414 
L 1261 3898 
C 1261 4129 1274 4192 1760 4192 
L 1901 4192 
L 1901 4352 
C 1638 4352 1331 4352 1069 4352 
C 870 4352 512 4352 326 4352 
L 326 4192 
C 768 4192 838 4192 838 3905 
L 838 452 
C 838 166 768 166 326 166 
L 326 0 
L 3315 0 
L 3469 1615 
z
" transform="scale(0.015625)"/>
       <path id="CMR17-73" d="M 1978 2697 
C 1978 2813 1971 2819 1933 2819 
C 1907 2819 1901 2813 1824 2717 
C 1805 2691 1747 2626 1728 2601 
C 1523 2819 1235 2819 1126 2819 
C 416 2819 160 2447 160 2076 
C 160 1498 813 1365 998 1325 
C 1402 1243 1542 1217 1677 1101 
C 1760 1025 1901 884 1901 654 
C 1901 384 1747 38 1158 38 
C 602 38 403 460 288 1021 
C 269 1110 269 1117 218 1117 
C 166 1117 160 1110 160 983 
L 160 63 
C 160 -51 166 -58 205 -58 
C 237 -58 243 -51 275 0 
C 314 57 410 211 448 276 
C 576 103 800 -64 1158 -64 
C 1792 -64 2131 283 2131 784 
C 2131 1112 1958 1285 1875 1362 
C 1683 1561 1459 1606 1190 1657 
C 838 1735 390 1825 390 2217 
C 390 2383 480 2737 1126 2737 
C 1811 2737 1850 2094 1862 1888 
C 1869 1856 1901 1849 1920 1849 
C 1978 1849 1978 1869 1978 1978 
L 1978 2697 
z
" transform="scale(0.015625)"/>
       <path id="CMSY10-4c" d="M 1152 610 
C 1498 1151 1606 1562 1690 1903 
C 1914 2790 2157 3562 2554 4005 
C 2630 4090 2682 4147 2886 4147 
C 3328 4147 3341 3704 3341 3613 
C 3341 3498 3309 3407 3309 3375 
C 3309 3330 3347 3330 3354 3330 
C 3456 3330 3629 3401 3789 3517 
C 3904 3607 3962 3671 3962 3934 
C 3962 4281 3782 4544 3424 4544 
C 3219 4544 2656 4493 2029 3856 
C 1517 3329 1216 2172 1094 1690 
C 979 1248 928 1048 736 662 
C 691 586 525 303 435 219 
C 262 59 198 -57 198 -89 
C 198 -102 211 -128 256 -128 
C 282 -128 416 -102 582 5 
C 691 68 704 80 851 231 
C 1171 231 1395 173 1798 58 
C 2125 -32 2451 -128 2778 -128 
C 3296 -128 3821 264 4026 546 
C 4154 719 4192 880 4192 899 
C 4192 944 4154 944 4147 944 
C 4045 944 3891 874 3782 796 
C 3610 687 3597 649 3558 539 
C 3526 436 3488 385 3462 346 
C 3411 269 3405 269 3309 269 
C 3002 269 2682 366 2259 481 
C 2080 532 1728 636 1408 636 
C 1325 636 1235 629 1152 610 
z
" transform="scale(0.015625)"/>
      </defs>
      <use xlink:href="#CMR17-4c" transform="scale(0.996264)"/>
      <use xlink:href="#CMR17-6f" transform="translate(57.381408 0) scale(0.996264)"/>
      <use xlink:href="#CMR17-73" transform="translate(103.071885 0) scale(0.996264)"/>
      <use xlink:href="#CMR17-73" transform="translate(138.873223 0) scale(0.996264)"/>
      <use xlink:href="#CMSY10-4c" transform="translate(204.750527 0) scale(0.996264)"/>
     </g>
    </g>
   </g>
   <g id="line2d_13">
    <path d="M 73.875647 174.49414 
L 74.419302 170.603864 
L 74.970109 171.015257 
L 75.513763 170.570446 
L 76.043111 175.088912 
L 76.586765 171.358548 
L 77.137572 172.696447 
L 77.681227 172.474715 
L 78.210574 177.03513 
L 78.754228 173.700404 
L 79.84869 176.186686 
L 80.378038 180.79215 
L 80.921692 178.489653 
L 81.472499 179.768127 
L 82.016154 180.64115 
L 82.545501 186.217884 
L 83.089155 183.874104 
L 83.639963 186.827543 
L 84.183617 188.563214 
L 84.712964 194.339992 
L 85.256619 193.275303 
L 85.800273 195.1507 
L 86.35108 195.898696 
L 86.880428 204.922626 
L 87.424082 202.437294 
L 87.967736 206.787941 
L 88.518544 209.02788 
L 89.047891 212.554954 
L 89.591545 212.624809 
L 90.1352 216.654819 
L 90.686007 217.820979 
L 91.215355 226.040198 
L 91.759009 226.251921 
L 92.302663 229.120383 
L 92.853471 232.820081 
L 93.397125 235.651237 
L 93.926472 241.283499 
L 94.470126 243.549656 
L 96.093936 253.421494 
L 96.63759 254.487392 
L 97.188397 258.485454 
L 98.261399 265.018305 
L 98.805053 266.27828 
L 99.355861 268.782378 
L 99.899515 270.246561 
L 100.428863 272.789093 
L 100.972517 273.547698 
L 101.523324 275.972169 
L 102.596326 279.014407 
L 103.13998 279.403965 
L 104.234442 281.520315 
L 104.763789 283.072112 
L 105.307444 283.428667 
L 105.851098 283.32744 
L 106.931253 286.146908 
L 107.474907 286.029893 
L 108.018561 286.487894 
L 108.569369 287.263854 
L 109.098716 288.235408 
L 109.64237 288.003133 
L 110.186025 288.127655 
L 110.736832 288.064862 
L 111.280486 289.07662 
L 111.809834 289.512397 
L 112.353488 289.134884 
L 112.904296 289.296055 
L 113.44795 289.650564 
L 113.977297 290.445801 
L 114.520951 290.013702 
L 115.071759 290.326368 
L 115.615413 290.274468 
L 116.144761 291.184861 
L 116.688415 290.883534 
L 117.239222 291.000727 
L 117.782877 290.843315 
L 118.312224 291.475677 
L 118.855878 290.9611 
L 119.406686 291.468728 
L 119.95034 291.204926 
L 120.479688 291.85181 
L 121.023342 291.575954 
L 121.566996 291.595272 
L 122.647151 292.041463 
L 123.190805 292.053947 
L 124.285267 291.687733 
L 124.814614 292.443465 
L 125.358269 292.121091 
L 125.901923 292.001211 
L 126.45273 291.485587 
L 126.982078 292.735425 
L 127.525732 292.317424 
L 128.069386 292.205036 
L 129.163848 292.417588 
L 129.693195 292.982968 
L 130.23685 292.371264 
L 131.860659 293.031962 
L 132.404313 292.8858 
L 132.955121 292.545244 
L 134.028122 293.120389 
L 134.571776 292.922018 
L 135.666238 292.969413 
L 136.195586 293.424289 
L 136.73924 293.193904 
L 137.290047 293.111825 
L 137.833702 293.266974 
L 138.363049 293.631718 
L 138.906703 293.225082 
L 139.450357 293.001645 
L 140.530512 293.604624 
L 141.074167 293.48153 
L 141.617821 293.16448 
L 142.168628 293.342965 
L 142.697976 293.731744 
L 143.24163 293.351195 
L 143.785284 293.549826 
L 144.336092 293.356057 
L 144.865439 293.784602 
L 145.409094 293.479712 
L 146.503555 293.518137 
L 147.047209 293.420742 
L 147.576557 293.772483 
L 148.671019 293.624908 
L 149.214673 293.636718 
L 149.74402 294.001553 
L 150.838482 293.798734 
L 151.382136 293.778823 
L 151.911484 293.920488 
L 152.455138 293.790925 
L 153.5496 293.846047 
L 154.078947 294.174461 
L 154.622601 293.844237 
L 155.173409 293.894246 
L 155.717063 293.802475 
L 156.246411 294.09118 
L 156.790065 293.728733 
L 157.333719 293.977835 
L 157.884527 293.67956 
L 158.413874 294.133989 
L 158.957528 293.678042 
L 159.501182 293.975359 
L 160.05199 293.966715 
L 160.581337 294.282068 
L 161.124992 293.964531 
L 161.668646 293.899368 
L 162.219453 293.95794 
L 162.748801 294.352182 
L 163.292455 294.120621 
L 164.930571 294.177172 
L 165.459918 294.501526 
L 166.003573 294.06993 
L 168.171036 294.2446 
L 168.721844 294.11666 
L 169.794845 294.393887 
L 170.3385 294.193828 
L 170.889307 294.186766 
L 171.432961 294.303318 
L 171.962309 294.542046 
L 172.505963 294.399894 
L 173.05677 294.095677 
L 174.129772 294.548808 
L 174.673426 294.154095 
L 175.217081 294.293797 
L 175.767888 294.209445 
L 176.297236 294.542745 
L 177.384544 294.252895 
L 177.935351 294.380583 
L 178.464699 294.649499 
L 179.552007 294.285038 
L 180.102815 294.353351 
L 180.632162 294.698372 
L 181.175817 294.15834 
L 181.719471 294.527988 
L 182.813933 294.478588 
L 183.34328 294.708274 
L 183.886934 294.390648 
L 184.437742 294.468921 
L 184.981396 294.299844 
L 185.510743 294.749793 
L 186.054398 294.362621 
L 186.605205 294.356492 
L 187.678207 294.710831 
L 188.221861 294.505804 
L 188.772669 294.533288 
L 189.316323 294.275241 
L 189.84567 294.782252 
L 190.940132 294.400186 
L 191.483786 294.466972 
L 192.013134 294.903918 
L 192.556788 294.511876 
L 193.100442 294.654442 
L 193.65125 294.316833 
L 194.180597 294.789809 
L 194.724251 294.418693 
L 195.267905 294.431298 
L 196.348061 294.877879 
L 196.891715 294.377077 
L 198.515524 294.805215 
L 199.059178 294.555342 
L 200.15364 294.570359 
L 200.697294 294.632364 
L 201.226642 294.830305 
L 201.770296 294.5016 
L 202.864757 294.546405 
L 203.394105 294.982385 
L 203.937759 294.604701 
L 204.488567 294.666123 
L 205.032221 294.563005 
L 205.561568 294.920436 
L 206.65603 294.652153 
L 207.199684 294.611812 
L 207.729032 294.922668 
L 208.272686 294.691001 
L 209.367148 294.633054 
L 209.896495 294.982068 
L 210.440149 294.589994 
L 210.983804 294.720596 
L 211.534611 294.692746 
L 212.063959 295.027182 
L 212.607613 294.700385 
L 213.151267 294.67415 
L 213.702075 294.495739 
L 214.231422 295.065373 
L 214.775076 294.655351 
L 215.869538 294.700985 
L 216.398885 295.07319 
L 216.94254 294.746091 
L 217.486194 294.86938 
L 218.580656 294.645709 
L 219.110003 294.984641 
L 219.653657 294.740523 
L 220.204465 294.680985 
L 221.277467 294.974365 
L 221.821121 294.731927 
L 222.371928 294.837959 
L 222.915582 294.789639 
L 223.44493 295.103839 
L 223.988584 294.707933 
L 224.539392 294.641674 
L 225.083046 294.843933 
L 225.612393 295.168394 
L 226.156048 294.660214 
L 226.706855 294.898333 
L 227.250509 294.758916 
L 227.779857 295.082581 
L 228.323511 294.817091 
L 229.94732 295.165114 
L 230.490974 294.915282 
L 231.034629 294.941638 
L 231.585436 294.834964 
L 232.114784 295.137979 
L 232.658438 294.821157 
L 233.202092 294.888431 
L 233.7529 294.72825 
L 234.282247 295.101891 
L 234.825901 294.778178 
L 236.464017 294.920826 
L 236.993365 295.17216 
L 237.537019 294.880338 
L 238.087826 294.971021 
L 238.631481 294.89395 
L 239.160828 295.153702 
L 239.704482 294.912489 
L 240.798944 294.824063 
L 241.328291 295.129189 
L 241.871946 294.857343 
L 242.966407 294.865387 
L 243.495755 295.290246 
L 244.039409 294.883788 
L 245.133871 295.011038 
L 245.663218 295.224506 
L 246.206873 294.933707 
L 246.750527 294.909868 
L 247.301334 294.769346 
L 247.830682 295.253687 
L 248.91799 294.856929 
L 249.468798 294.937238 
L 249.998145 295.199116 
L 250.541799 294.895923 
L 251.085454 294.921053 
L 251.636261 294.807099 
L 252.165609 295.271926 
L 252.709263 294.933797 
L 255.42038 294.969 
L 255.971188 294.67816 
L 257.04419 295.181129 
L 257.587844 295.118531 
L 258.138651 294.852862 
L 258.682306 294.928991 
L 259.211653 295.215245 
L 259.755307 294.903228 
L 260.849769 294.901661 
L 261.379116 295.271715 
L 261.922771 294.924348 
L 263.54658 295.180131 
L 264.090234 294.970055 
L 265.184696 294.98469 
L 265.714043 295.292949 
L 266.257697 294.99913 
L 266.801352 295.102216 
L 267.352159 294.884559 
L 267.881507 295.262478 
L 268.968815 294.953448 
L 269.519623 294.975591 
L 270.04897 295.333875 
L 270.592624 294.957815 
L 271.136279 294.878358 
L 272.760088 295.33454 
L 273.303742 294.939276 
L 273.854549 295.074602 
L 274.398204 294.961459 
L 274.927551 295.299832 
L 275.471205 295.053944 
L 276.022013 295.092889 
L 276.565667 294.984049 
L 277.095015 295.246999 
L 277.638669 294.972977 
L 278.73313 295.061371 
L 279.262478 295.277527 
L 279.806132 295.096761 
L 280.900594 295.0484 
L 281.429941 295.376367 
L 281.973596 295.059626 
L 283.068057 295.021087 
L 283.597405 295.305019 
L 284.141059 294.921889 
L 284.684713 295.081721 
L 285.235521 295.125706 
L 285.764868 295.357584 
L 286.308522 295.019423 
L 286.852177 295.167679 
L 287.402984 295.106867 
L 287.932332 295.347097 
L 288.475986 295.085162 
L 289.01964 294.962969 
L 290.114102 295.097378 
L 290.643449 295.263776 
L 291.187103 295.003611 
L 291.737911 295.11931 
L 292.281565 294.99284 
L 292.810913 295.320449 
L 293.354567 295.124148 
L 294.449029 295.081615 
L 294.978376 295.34661 
L 295.52203 294.994869 
L 296.616492 294.981248 
L 297.14584 295.42511 
L 297.689494 295.050738 
L 298.240301 294.932368 
L 299.313303 295.391489 
L 299.856957 294.996468 
L 301.480766 295.284118 
L 302.024421 295.030275 
L 303.118882 295.000096 
L 303.64823 295.340725 
L 304.191884 295.036687 
L 304.735538 295.089789 
L 305.286346 294.964901 
L 305.815693 295.339557 
L 306.359347 295.015048 
L 306.903002 294.956898 
L 307.453809 295.079772 
L 307.997463 294.959422 
L 308.526811 295.383088 
L 309.070465 294.99637 
L 309.621273 295.08332 
L 310.164927 294.988773 
L 310.694274 295.314743 
L 311.237928 294.884729 
L 311.788736 295.043498 
L 312.33239 295.044342 
L 312.861738 295.371497 
L 313.405392 295.040705 
L 314.499854 295.042848 
L 315.029201 295.29898 
L 315.572855 294.953545 
L 317.196664 295.363307 
L 318.283973 294.961516 
L 318.83478 295.052499 
L 319.364128 295.360831 
L 319.907782 294.99426 
L 321.002244 295.042069 
L 321.531591 295.28984 
L 322.6189 294.959738 
L 323.169707 295.042532 
L 323.699055 295.347373 
L 324.242709 295.142947 
L 324.786363 295.167858 
L 325.880825 295.028855 
L 326.410172 295.386448 
L 326.953827 295.048766 
L 327.504634 295.09595 
L 328.048288 295.009228 
L 328.577636 295.332681 
L 329.12129 294.977076 
L 329.672098 295.140033 
L 330.215752 294.974909 
L 330.745099 295.255635 
L 331.839561 295.02547 
L 332.383215 295.175772 
L 333.456217 295.130909 
L 334.007024 295.017564 
L 334.550679 295.020226 
L 335.080026 295.419265 
L 335.62368 295.035299 
L 336.718142 295.068441 
L 337.247489 295.437033 
L 337.791144 295.050235 
L 338.885605 295.084367 
L 339.414953 295.351342 
L 339.958607 295.115033 
L 341.053069 295.050665 
L 341.582416 295.44011 
L 342.12607 295.074082 
L 343.220532 295.121429 
L 343.764186 295.008384 
L 344.293534 295.418648 
L 344.837188 295.081461 
L 346.460997 295.243005 
L 347.004652 295.058076 
L 348.099113 295.038457 
L 348.628461 295.255935 
L 349.172115 295.029528 
L 350.266577 295.06534 
L 350.795924 295.455873 
L 351.339578 295.102744 
L 351.890386 295.034593 
L 352.963388 295.241787 
L 353.507042 294.873536 
L 354.050696 295.170942 
L 354.601504 295.063336 
L 355.130851 295.409655 
L 355.674505 295.153897 
L 356.218159 295.029764 
L 357.298314 295.260132 
L 358.385623 294.991005 
L 359.465778 295.375515 
L 360.553086 294.995883 
L 361.103894 295.244864 
L 361.647548 294.992231 
L 362.176895 295.426944 
L 362.72055 294.995453 
L 363.271357 295.17147 
L 363.815011 295.102281 
L 364.344359 295.323087 
L 365.438821 295.05612 
L 365.982475 295.04508 
L 366.511822 295.318185 
L 367.055476 295.061972 
L 367.606284 295.093214 
L 368.149938 294.977133 
L 368.679286 295.438559 
L 369.22294 295.185545 
L 369.773747 295.082621 
L 370.317402 295.097979 
L 370.846749 295.361838 
L 371.390403 295.096932 
L 371.934058 295.118458 
L 372.484865 294.780183 
L 373.014213 295.401814 
L 373.557867 295.148759 
L 374.101521 295.062816 
L 374.652328 295.115398 
L 375.181676 295.354078 
L 375.72533 295.072548 
L 376.268984 295.176129 
L 376.819792 295.092735 
L 377.349139 295.352803 
L 377.892794 295.060357 
L 379.530909 295.168459 
L 380.060257 295.432788 
L 380.603911 295.021103 
L 381.154719 295.177395 
L 381.698373 295.006744 
L 382.22772 295.280018 
L 382.771375 294.933667 
L 383.322182 295.075479 
L 383.865836 295.043019 
L 384.395184 295.365247 
L 385.489646 295.107224 
L 386.0333 295.165098 
L 386.562647 295.392349 
L 387.106301 295.067629 
L 387.657109 295.070552 
L 388.200763 294.949527 
L 388.730111 295.326918 
L 389.273765 295.122581 
L 390.897574 295.257039 
L 391.441228 294.958513 
L 391.984882 295.092873 
L 392.53569 295.069943 
L 393.065038 295.372617 
L 393.608692 295.077768 
L 394.703153 295.16121 
L 395.232501 295.488 
L 395.776155 295.12194 
L 396.319809 294.982507 
L 396.870617 295.180618 
L 397.414271 295.138004 
L 397.943619 295.356838 
L 398.487273 295.090609 
L 398.487273 295.090609 
" clip-path="url(#p41e8c6da57)" style="fill: none; stroke: #4c72b0; stroke-width: 1.2; stroke-linecap: round"/>
   </g>
   <g id="line2d_14">
    <path d="M 74.419302 166.233069 
L 75.513763 166.692037 
L 76.586765 167.50984 
L 77.681227 168.721492 
L 78.754228 170.46161 
L 79.84869 172.707733 
L 80.921692 175.48677 
L 82.016154 178.760931 
L 84.183617 186.811174 
L 85.256619 191.530103 
L 86.35108 197.052705 
L 88.518544 209.796967 
L 90.686007 225.154236 
L 93.926472 249.000225 
L 95.020934 256.027348 
L 96.093936 262.056004 
L 97.188397 267.024227 
L 98.261399 271.033685 
L 99.355861 274.314718 
L 100.428863 277.000361 
L 101.523324 279.261326 
L 102.596326 281.156813 
L 103.683634 282.773421 
L 104.763789 284.169895 
L 106.931253 286.395524 
L 109.098716 288.129437 
L 111.280486 289.451169 
L 113.44795 290.460673 
L 115.615413 291.262373 
L 117.782877 291.800285 
L 121.023342 292.2701 
L 126.45273 292.748195 
L 141.617821 293.517924 
L 177.384544 294.357813 
L 212.063959 294.761633 
L 255.42038 295.022605 
L 273.854549 295.087993 
L 398.487273 295.177535 
L 398.487273 295.177535 
" clip-path="url(#p41e8c6da57)" style="fill: none; stroke-dasharray: 4.8,1.8; stroke-dashoffset: 0; stroke: #4c72b0; stroke-width: 1.2"/>
   </g>
   <g id="line2d_15">
    <path d="M 73.832727 67.197888 
L 74.333461 56.066327 
L 74.834196 53.568 
L 75.320623 63.538978 
L 75.821357 60.798302 
L 76.322091 55.300822 
L 76.808519 68.984234 
L 77.309253 56.186816 
L 77.809987 60.621409 
L 78.296414 73.185253 
L 78.797148 68.778493 
L 79.305036 66.121909 
L 79.80577 64.14664 
L 80.292197 76.896087 
L 80.792932 72.89835 
L 81.293666 67.556456 
L 81.780093 84.283056 
L 82.280827 77.934785 
L 82.781561 81.81343 
L 83.267989 89.962608 
L 83.768723 86.979924 
L 84.269457 98.785723 
L 84.755885 96.474655 
L 85.256619 94.948759 
L 85.757353 101.762741 
L 86.258087 106.753251 
L 86.744514 118.576014 
L 87.245248 122.005562 
L 87.753136 120.71928 
L 88.23241 127.569188 
L 88.740297 130.155414 
L 89.241032 137.007603 
L 89.727459 151.006716 
L 90.228193 150.837006 
L 90.728927 152.211269 
L 91.215355 165.540804 
L 91.716089 166.010145 
L 92.216823 172.038776 
L 92.717557 172.277529 
L 93.203984 189.525832 
L 93.704719 185.73343 
L 94.205453 191.341772 
L 94.69188 201.127618 
L 95.192614 201.733697 
L 96.179776 210.232847 
L 96.68051 216.837241 
L 97.188397 214.356178 
L 98.175559 225.287104 
L 98.676293 221.671798 
L 99.177027 226.095255 
L 99.663455 232.244903 
L 100.164189 228.494709 
L 100.664923 232.666053 
L 101.15135 234.605923 
L 101.652084 234.321285 
L 102.639246 240.342879 
L 103.13998 238.696097 
L 103.640714 239.366836 
L 104.141448 240.468432 
L 104.627876 244.737926 
L 105.12861 240.596892 
L 105.636497 244.816775 
L 106.115772 246.504166 
L 106.623659 242.439439 
L 107.124393 244.29495 
L 107.610821 247.333235 
L 108.612289 244.330892 
L 109.098716 249.154476 
L 109.59945 246.504223 
L 110.100184 246.19068 
L 110.600919 247.40003 
L 111.087346 246.418004 
L 111.58808 248.047879 
L 112.088814 246.675646 
L 112.575242 248.529598 
L 113.075976 247.362797 
L 113.57671 248.730647 
L 114.063137 249.135604 
L 114.563872 248.515101 
L 115.071759 249.892886 
L 115.572493 247.151975 
L 116.058921 249.586421 
L 116.559655 249.239704 
L 117.060389 248.162296 
L 117.546816 249.599335 
L 118.04755 247.410785 
L 118.548284 248.50351 
L 119.034712 250.053594 
L 119.535446 247.95416 
L 120.03618 249.277432 
L 120.522608 251.573208 
L 121.023342 248.892459 
L 121.524076 249.242594 
L 122.02481 249.230004 
L 122.511237 251.072503 
L 123.011972 250.428672 
L 123.519859 248.633674 
L 123.999133 250.952372 
L 124.507021 249.706877 
L 125.007755 249.503011 
L 125.494182 252.213508 
L 125.994916 248.9022 
L 126.49565 251.077406 
L 126.982078 250.513332 
L 127.482812 249.337343 
L 127.983546 249.925922 
L 128.48428 250.194286 
L 128.970708 251.435284 
L 129.471442 249.969811 
L 129.972176 251.074695 
L 130.458603 251.519587 
L 130.959337 249.569213 
L 131.460072 250.282404 
L 131.946499 251.252879 
L 132.447233 249.888446 
L 132.955121 249.520722 
L 133.455855 250.657904 
L 133.942282 252.556629 
L 134.443016 250.667271 
L 134.94375 249.799987 
L 135.430178 252.45162 
L 135.930912 249.357335 
L 136.918073 252.857785 
L 137.418808 251.163576 
L 137.919542 250.502415 
L 138.405969 251.469976 
L 138.906703 251.979852 
L 139.407437 249.540276 
L 140.394599 252.405369 
L 140.895333 250.178661 
L 141.403221 251.253682 
L 141.882495 252.5396 
L 142.390382 249.047104 
L 142.891116 251.872984 
L 143.377544 252.207867 
L 143.878278 252.217453 
L 144.379012 251.199363 
L 144.865439 252.561069 
L 145.366173 249.549091 
L 146.367642 250.983208 
L 146.854069 252.64827 
L 147.354803 250.866949 
L 147.855537 251.764289 
L 148.341965 253.011334 
L 148.842699 249.872001 
L 149.343433 252.333371 
L 149.82986 251.492833 
L 150.330595 251.091464 
L 150.838482 251.857748 
L 151.339216 250.279043 
L 151.825644 252.889044 
L 152.827112 251.34064 
L 153.313539 253.195273 
L 153.814273 251.398847 
L 154.315008 250.84224 
L 154.801435 253.813561 
L 155.302169 251.230427 
L 155.802903 251.591885 
L 156.289331 252.597823 
L 156.790065 251.820167 
L 157.290799 251.52453 
L 157.791533 251.003192 
L 158.27796 252.720746 
L 158.778695 251.88964 
L 159.286582 251.852984 
L 159.765856 253.247823 
L 160.273744 251.635611 
L 160.774478 251.317985 
L 161.260905 252.408121 
L 161.761639 249.854639 
L 162.262373 253.602844 
L 162.748801 251.384853 
L 163.249535 252.017799 
L 163.750269 250.213483 
L 164.251003 252.624568 
L 164.737431 253.581472 
L 165.238165 251.020067 
L 165.738899 252.379752 
L 166.225326 251.924559 
L 166.72606 251.81097 
L 167.226795 252.630924 
L 167.713222 253.058437 
L 168.213956 252.567059 
L 168.721844 250.935521 
L 169.222578 252.054918 
L 169.709005 254.593806 
L 170.209739 252.161153 
L 170.710473 251.795743 
L 171.196901 253.574613 
L 171.697635 252.449663 
L 172.198369 250.61076 
L 172.684797 254.04612 
L 173.185531 251.191547 
L 173.686265 252.795041 
L 174.172692 253.941768 
L 174.673426 250.331154 
L 175.17416 253.085069 
L 175.674895 252.185943 
L 176.161322 254.20277 
L 176.662056 251.38327 
L 177.169944 253.550213 
L 177.649218 252.476149 
L 178.157105 251.980615 
L 178.657839 251.956134 
L 179.144267 254.221715 
L 179.645001 252.116835 
L 180.145735 252.257835 
L 180.632162 252.959921 
L 181.132897 251.695401 
L 181.633631 250.858401 
L 182.134365 252.289986 
L 182.620792 254.831203 
L 183.121526 250.610127 
L 183.62226 252.781737 
L 184.108688 252.963517 
L 184.609422 252.972462 
L 185.110156 251.627591 
L 185.596584 253.299861 
L 186.097318 253.264933 
L 186.605205 251.924657 
L 187.105939 251.637867 
L 187.592367 254.111348 
L 188.093101 251.228171 
L 188.593835 253.167781 
L 189.080262 253.283708 
L 189.580997 253.175062 
L 190.568158 253.368579 
L 191.068892 252.755625 
L 191.569626 252.62995 
L 192.056054 254.872908 
L 192.556788 252.739578 
L 193.057522 252.805139 
L 193.558256 252.559551 
L 194.044684 253.885144 
L 194.545418 253.261541 
L 195.053305 252.356172 
L 195.532579 253.896687 
L 196.040467 252.73099 
L 196.541201 252.799984 
L 197.027628 254.170968 
L 197.528362 251.299543 
L 198.515524 253.797643 
L 199.516992 252.3351 
L 200.017726 254.241123 
L 200.504154 254.589682 
L 201.004888 252.347389 
L 201.505622 252.653148 
L 201.992049 254.186763 
L 202.492784 252.702995 
L 202.993518 254.014115 
L 203.980679 252.451879 
L 204.488567 252.384354 
L 204.989301 253.386769 
L 205.475728 253.959333 
L 205.976462 252.564778 
L 206.477197 253.261338 
L 206.963624 254.739222 
L 207.464358 252.607717 
L 207.965092 253.033494 
L 208.952254 254.145553 
L 209.452988 252.874985 
L 209.939415 254.632922 
L 210.440149 252.660518 
L 210.940884 253.004743 
L 211.441618 252.595331 
L 211.928045 254.166739 
L 212.428779 252.551621 
L 212.936667 252.88824 
L 213.415941 255.27172 
L 213.923828 251.254064 
L 214.424562 253.756198 
L 214.91099 254.468163 
L 215.411724 253.079809 
L 215.912458 252.784375 
L 216.398885 254.321108 
L 216.89962 252.406643 
L 217.400354 253.087764 
L 217.901088 252.675778 
L 218.387515 254.942179 
L 218.888249 252.884937 
L 219.388984 253.667487 
L 219.875411 255.031579 
L 220.376145 253.528833 
L 220.876879 252.901666 
L 221.363307 255.016611 
L 221.864041 251.502444 
L 222.371928 253.886321 
L 222.872662 252.990839 
L 223.35909 254.758784 
L 223.859824 251.667916 
L 224.360558 254.092915 
L 224.846985 254.846837 
L 225.34772 252.722256 
L 225.848454 253.509498 
L 226.334881 253.988969 
L 226.835615 254.02763 
L 227.336349 252.01409 
L 227.822777 255.08783 
L 228.323511 253.36099 
L 228.824245 252.328834 
L 229.811407 255.038722 
L 230.312141 252.727451 
L 231.299302 255.048438 
L 231.80719 253.36681 
L 232.307924 253.279755 
L 232.794351 254.251163 
L 233.295085 252.910327 
L 233.79582 255.119243 
L 234.282247 253.764152 
L 234.782981 253.576155 
L 235.283715 252.656184 
L 235.784449 254.182112 
L 236.270877 255.068909 
L 236.771611 253.353855 
L 237.272345 253.676976 
L 237.758773 254.37722 
L 238.259507 253.864746 
L 238.760241 253.530822 
L 239.246668 255.312711 
L 239.747402 253.311825 
L 240.25529 253.61842 
L 240.756024 253.655109 
L 241.242451 255.077026 
L 241.743185 253.358944 
L 242.24392 254.098418 
L 242.730347 255.148602 
L 243.231081 254.218882 
L 243.731815 252.633359 
L 244.218243 254.632735 
L 244.718977 254.036388 
L 245.219711 254.437391 
L 245.706138 254.175935 
L 246.206873 254.271285 
L 246.707607 252.818442 
L 247.208341 254.059067 
L 247.694768 254.549617 
L 248.195502 252.354743 
L 248.70339 255.183716 
L 249.690551 253.918343 
L 250.191285 253.832124 
L 250.677713 255.458208 
L 251.178447 253.663153 
L 251.679181 253.991517 
L 252.165609 255.093845 
L 252.666343 254.589617 
L 253.167077 252.542717 
L 253.667811 254.210903 
L 254.154238 255.181841 
L 254.654973 253.908334 
L 255.155707 253.219016 
L 255.642134 255.816094 
L 256.643602 252.661549 
L 257.13003 255.304683 
L 257.630764 253.585327 
L 258.138651 253.351428 
L 258.639385 253.602137 
L 259.125813 255.901136 
L 259.626547 253.393231 
L 260.127281 253.301882 
L 260.613709 255.546586 
L 261.114443 253.594207 
L 261.615177 253.235055 
L 262.101604 256.196846 
L 262.602338 253.269227 
L 263.103073 254.324078 
L 263.5895 254.961075 
L 264.090234 253.244105 
L 264.590968 255.127692 
L 265.091702 252.544949 
L 265.57813 255.436617 
L 266.586751 252.936163 
L 267.066025 256.308048 
L 268.074647 253.119712 
L 268.561074 255.788894 
L 269.061809 253.986038 
L 269.562543 252.833029 
L 270.04897 256.79161 
L 270.549704 253.126003 
L 271.050438 253.926305 
L 271.551172 253.704679 
L 272.0376 256.660325 
L 272.538334 251.815581 
L 273.039068 255.671441 
L 273.525496 253.872628 
L 274.02623 254.047776 
L 274.526964 254.869783 
L 275.013391 255.185656 
L 275.514125 254.550908 
L 276.022013 253.522047 
L 276.522747 254.512222 
L 277.009174 255.130964 
L 277.509909 253.461421 
L 278.010643 254.520729 
L 278.49707 254.567166 
L 278.997804 254.482993 
L 279.498538 253.388937 
L 279.984966 255.789397 
L 280.4857 252.896844 
L 280.986434 254.612637 
L 281.472861 255.325747 
L 281.973596 253.278083 
L 282.47433 253.143049 
L 282.975064 255.293052 
L 283.461491 254.271561 
L 283.962225 255.262167 
L 284.470113 252.949921 
L 284.949387 256.32666 
L 285.457274 253.886792 
L 285.958009 253.560432 
L 286.444436 256.449633 
L 286.94517 253.708981 
L 287.445904 252.953209 
L 287.932332 256.374778 
L 288.433066 252.665429 
L 288.9338 254.996132 
L 289.434534 253.696928 
L 289.920961 255.074177 
L 290.421696 254.087874 
L 290.92243 254.437635 
L 291.408857 255.198765 
L 291.909591 253.918927 
L 292.410325 254.761608 
L 292.896753 254.494852 
L 293.397487 252.9992 
L 293.905374 253.129428 
L 294.406109 254.871261 
L 294.892536 255.779202 
L 295.39327 253.42509 
L 296.380432 255.499215 
L 296.881166 252.795966 
L 297.868327 256.045391 
L 298.369061 253.498475 
L 298.869796 254.400841 
L 299.356223 255.747635 
L 299.856957 254.132623 
L 300.357691 253.790849 
L 301.344853 255.043495 
L 301.845587 253.425747 
L 302.353474 254.018376 
L 302.832749 255.439165 
L 303.340636 253.546617 
L 303.84137 253.032033 
L 304.327798 256.131601 
L 305.329266 253.40763 
L 305.815693 256.17984 
L 306.316427 253.807935 
L 306.817161 254.680187 
L 307.317896 253.149518 
L 307.804323 255.425066 
L 308.305057 254.937211 
L 308.805791 253.295648 
L 309.292219 254.128289 
L 309.792953 255.342159 
L 310.293687 252.927583 
L 310.780114 255.23676 
L 311.280848 254.5981 
L 311.788736 253.318757 
L 312.28947 253.542616 
L 312.775898 254.711608 
L 313.276632 254.577742 
L 313.777366 254.189685 
L 314.263793 254.443471 
L 315.265261 254.415435 
L 315.751689 255.321209 
L 316.252423 253.43052 
L 316.753157 253.022755 
L 317.239585 255.548185 
L 317.740319 254.174791 
L 318.741787 253.791961 
L 319.228214 255.146159 
L 319.728948 253.895071 
L 320.236836 254.04 
L 320.71611 255.49557 
L 321.724732 253.498281 
L 322.211159 255.569817 
L 322.711893 254.068369 
L 323.212627 253.173999 
L 323.699055 256.864411 
L 324.199789 253.160062 
L 324.700523 254.677248 
L 325.201257 253.946809 
L 325.687685 255.663844 
L 326.188419 252.592466 
L 326.689153 254.649829 
L 327.17558 255.928035 
L 327.676314 253.803885 
L 328.177048 253.507607 
L 328.663476 256.514512 
L 329.672098 253.389464 
L 330.172832 254.060958 
L 330.659259 255.669144 
L 331.159993 253.282831 
L 332.147155 255.021547 
L 332.647889 255.000442 
L 333.148623 254.129709 
L 333.63505 255.698519 
L 334.135785 252.721777 
L 334.636519 255.219496 
L 335.122946 255.231939 
L 335.62368 253.967069 
L 336.124414 253.564028 
L 336.625148 254.09759 
L 337.111576 256.039408 
L 337.61231 254.367058 
L 338.120198 253.109055 
L 338.599472 254.707492 
L 339.107359 254.430184 
L 339.608093 254.9323 
L 340.094521 254.736648 
L 340.595255 254.970466 
L 341.095989 253.123633 
L 341.582416 255.239098 
L 342.08315 253.817952 
L 342.583885 254.763792 
L 343.084619 253.584386 
L 343.571046 255.562665 
L 344.07178 252.668205 
L 344.572514 255.61394 
L 345.058942 255.154064 
L 345.559676 254.022816 
L 346.06041 254.798427 
L 346.546837 254.78923 
L 347.047572 254.920888 
L 347.555459 253.372881 
L 348.056193 254.104303 
L 348.542621 255.670272 
L 349.043355 255.061774 
L 349.544089 253.840752 
L 350.030516 254.995816 
L 350.53125 253.19865 
L 351.031985 255.177945 
L 351.518412 253.937304 
L 352.019146 254.791958 
L 352.51988 253.823999 
L 353.006308 255.046774 
L 353.507042 253.588809 
L 354.007776 254.628871 
L 354.50851 253.664265 
L 354.994937 255.778285 
L 355.495672 252.947267 
L 356.003559 254.712809 
L 356.482833 255.092148 
L 356.990721 254.309882 
L 357.491455 253.983051 
L 357.977882 255.998799 
L 358.478616 254.05819 
L 358.97935 254.526833 
L 359.465778 255.489418 
L 359.966512 253.937945 
L 360.467246 253.580903 
L 360.96798 255.366916 
L 361.454408 255.120923 
L 361.955142 253.123617 
L 362.455876 253.293611 
L 362.942303 256.477052 
L 363.443037 252.975457 
L 363.943772 254.863444 
L 364.430199 255.974383 
L 364.930933 252.444607 
L 365.438821 254.026015 
L 365.939555 254.387391 
L 366.425982 255.296282 
L 366.926716 254.050447 
L 367.42745 254.347585 
L 367.913878 255.298311 
L 368.414612 255.944691 
L 368.915346 251.79127 
L 369.401774 256.843526 
L 369.902508 254.673117 
L 370.403242 253.226719 
L 370.889669 255.576359 
L 371.390403 254.492149 
L 371.390403 254.492149 
" clip-path="url(#p41e8c6da57)" style="fill: none; stroke: #dd8452; stroke-width: 1.2; stroke-linecap: round"/>
   </g>
   <g id="line2d_16">
    <path d="M 74.333461 63.714815 
L 75.320623 64.447028 
L 76.322091 65.667569 
L 77.309253 67.383134 
L 78.296414 69.655038 
L 79.305036 72.540214 
L 80.292197 76.04007 
L 81.293666 80.307928 
L 82.280827 85.461203 
L 83.267989 91.313815 
L 84.269457 98.117221 
L 85.256619 105.937152 
L 86.258087 115.405707 
L 87.245248 125.966746 
L 91.215355 178.066449 
L 92.216823 189.07525 
L 93.203984 198.645802 
L 94.205453 206.587468 
L 95.192614 213.020289 
L 96.179776 218.383504 
L 97.188397 222.789039 
L 98.175559 226.432141 
L 99.177027 229.455941 
L 100.164189 231.959128 
L 101.15135 234.049054 
L 102.152819 235.777475 
L 103.13998 237.177957 
L 104.141448 238.337358 
L 106.115772 240.079527 
L 108.111555 241.250089 
L 111.087346 242.522193 
L 115.071759 243.838721 
L 118.04755 244.623652 
L 123.999133 245.924029 
L 133.942282 247.50209 
L 143.878278 248.575798 
L 155.802903 249.426862 
L 165.738899 249.966629 
L 179.645001 250.560149 
L 197.528362 251.047421 
L 240.25529 251.830816 
L 254.154238 251.988533 
L 276.022013 252.174282 
L 371.390403 252.291404 
L 371.390403 252.291404 
" clip-path="url(#p41e8c6da57)" style="fill: none; stroke-dasharray: 4.8,1.8; stroke-dashoffset: 0; stroke: #dd8452; stroke-width: 1.2"/>
   </g>
   <g id="line2d_17"/>
   <g id="line2d_18"/>
   <g id="line2d_19"/>
   <g id="line2d_20"/>
   <g id="patch_3">
    <path d="M 57.6 307.584 
L 57.6 41.472 
" style="fill: none; stroke: #cccccc; stroke-linejoin: miter; stroke-linecap: square"/>
   </g>
   <g id="patch_4">
    <path d="M 414.72 307.584 
L 414.72 41.472 
" style="fill: none; stroke: #cccccc; stroke-linejoin: miter; stroke-linecap: square"/>
   </g>
   <g id="patch_5">
    <path d="M 57.6 307.584 
L 414.72 307.584 
" style="fill: none; stroke: #cccccc; stroke-linejoin: miter; stroke-linecap: square"/>
   </g>
   <g id="patch_6">
    <path d="M 57.6 41.472 
L 414.72 41.472 
" style="fill: none; stroke: #cccccc; stroke-linejoin: miter; stroke-linecap: square"/>
   </g>
   <g id="legend_1">
    <g id="patch_7">
     <path d="M 322.102153 139.7541 
L 407.328 139.7541 
Q 409.44 139.7541 409.44 137.6421 
L 409.44 48.864 
Q 409.44 46.752 407.328 46.752 
L 322.102153 46.752 
Q 319.990153 46.752 319.990153 48.864 
L 319.990153 137.6421 
Q 319.990153 139.7541 322.102153 139.7541 
z
" style="fill: #ffffff; opacity: 0.8; stroke: #cccccc; stroke-width: 0.8; stroke-linejoin: miter"/>
    </g>
    <g id="text_15">
     <!-- Corpus -->
     <g style="fill: #262626" transform="translate(332.662153 58.946112) scale(0.1152 -0.1152)">
      <defs>
       <path id="CMR17-43" d="M 3974 4289 
C 3974 4403 3968 4410 3930 4410 
C 3904 4410 3898 4403 3853 4327 
L 3571 3792 
C 3258 4187 2874 4416 2381 4416 
C 1286 4416 294 3456 294 2148 
C 294 826 1286 -128 2387 -128 
C 3366 -128 3974 730 3974 1461 
C 3974 1524 3974 1550 3917 1550 
C 3866 1550 3866 1531 3859 1474 
C 3808 585 3168 38 2477 38 
C 1824 38 781 495 781 2147 
C 781 3805 1843 4250 2464 4250 
C 3187 4250 3712 3628 3834 2745 
C 3846 2668 3846 2655 3904 2655 
C 3974 2655 3974 2668 3974 2783 
L 3974 4289 
z
" transform="scale(0.015625)"/>
       <path id="CMR17-72" d="M 960 1497 
C 960 2112 1222 2688 1702 2688 
C 1747 2688 1792 2682 1837 2662 
C 1837 2662 1696 2617 1696 2452 
C 1696 2298 1818 2234 1914 2234 
C 1990 2234 2131 2279 2131 2458 
C 2131 2663 1926 2790 1709 2790 
C 1222 2790 1011 2317 947 2093 
L 941 2093 
L 941 2790 
L 198 2720 
L 198 2554 
C 576 2554 634 2515 634 2208 
L 634 428 
C 634 184 608 153 198 153 
L 198 -13 
C 352 0 646 0 813 0 
C 998 0 1325 0 1498 -13 
L 1498 153 
C 1037 153 960 153 960 440 
L 960 1497 
z
" transform="scale(0.015625)"/>
       <path id="CMR17-75" d="M 1882 2693 
L 1882 2528 
C 2259 2528 2317 2489 2317 2186 
L 2317 1032 
C 2317 500 2029 38 1555 38 
C 1030 38 986 348 986 678 
L 986 2763 
L 211 2693 
L 211 2528 
C 467 2528 640 2528 646 2274 
L 646 1058 
C 646 633 646 361 813 183 
C 896 101 1056 -64 1517 -64 
C 2061 -64 2272 377 2323 506 
L 2330 506 
L 2330 -63 
L 3091 -63 
L 3091 128 
C 2714 128 2656 166 2656 473 
L 2656 2763 
L 1882 2693 
z
" transform="scale(0.015625)"/>
      </defs>
      <use xlink:href="#CMR17-43" transform="scale(0.996264)"/>
      <use xlink:href="#CMR17-6f" transform="translate(66.509881 0) scale(0.996264)"/>
      <use xlink:href="#CMR17-72" transform="translate(112.200358 0) scale(0.996264)"/>
      <use xlink:href="#CMR17-70" transform="translate(147.481125 0) scale(0.996264)"/>
      <use xlink:href="#CMR17-75" transform="translate(198.376495 0) scale(0.996264)"/>
      <use xlink:href="#CMR17-73" transform="translate(249.271865 0) scale(0.996264)"/>
     </g>
    </g>
    <g id="line2d_21">
     <path d="M 324.214153 70.153734 
L 334.774153 70.153734 
L 345.334153 70.153734 
" style="fill: none; stroke: #4c72b0; stroke-width: 1.2; stroke-linecap: round"/>
    </g>
    <g id="text_16">
     <!-- RAVDESS -->
     <g style="fill: #262626" transform="translate(353.782153 73.849734) scale(0.1056 -0.1056)">
      <defs>
       <path id="CMR17-52" d="M 2509 2146 
C 3117 2268 3629 2676 3629 3186 
C 3629 3785 2950 4326 2054 4326 
L 333 4326 
L 333 4160 
C 774 4160 845 4160 845 3873 
L 845 415 
C 845 128 774 128 333 128 
L 333 -26 
C 518 -26 851 -26 1050 -26 
C 1248 -26 1581 -26 1766 -26 
L 1766 128 
C 1325 128 1254 128 1254 417 
L 1254 2112 
L 2003 2112 
C 2368 2112 2573 1964 2662 1881 
C 2918 1632 2918 1459 2918 1024 
C 2918 595 2918 377 3110 160 
C 3354 -102 3680 -128 3821 -128 
C 4294 -128 4365 396 4365 503 
C 4365 540 4365 585 4307 585 
C 4256 585 4250 547 4250 522 
C 4218 112 4032 -26 3834 -26 
C 3482 -26 3443 375 3405 764 
C 3386 898 3373 993 3360 1133 
C 3322 1452 3270 1917 2509 2146 
z
M 1984 2214 
L 1254 2214 
L 1254 3913 
C 1254 4129 1267 4160 1523 4160 
L 1990 4160 
C 2522 4160 3142 3977 3142 3190 
C 3142 2372 2464 2214 1984 2214 
z
" transform="scale(0.015625)"/>
       <path id="CMR17-41" d="M 2323 4378 
C 2291 4461 2278 4480 2214 4480 
C 2150 4480 2138 4461 2106 4378 
L 749 566 
C 627 223 371 153 147 153 
L 147 -13 
C 262 0 518 0 640 0 
C 800 0 1056 0 1210 -13 
L 1210 153 
C 909 153 864 361 864 439 
C 864 497 877 530 890 569 
L 1229 1536 
L 2906 1536 
L 3290 442 
C 3322 365 3322 352 3322 327 
C 3322 153 3046 153 2925 153 
L 2925 0 
C 3110 0 3443 0 3642 0 
C 3808 0 4128 0 4282 -13 
L 4282 153 
C 3942 153 3827 153 3744 387 
L 2323 4378 
z
M 2067 3893 
L 2848 1702 
L 1286 1702 
L 2067 3893 
z
" transform="scale(0.015625)"/>
       <path id="CMR17-56" d="M 3776 3745 
C 3834 3886 3936 4160 4365 4160 
L 4365 4332 
C 4218 4319 4051 4319 3891 4319 
C 3738 4319 3475 4319 3328 4332 
L 3328 4160 
C 3648 4160 3661 3936 3661 3898 
C 3661 3827 3642 3783 3622 3732 
L 2362 446 
L 1043 3886 
C 1024 3931 1011 3963 1011 3994 
C 1011 4160 1267 4160 1402 4160 
L 1402 4319 
C 1197 4319 896 4319 685 4319 
C 518 4319 218 4319 64 4332 
L 64 4160 
C 435 4160 506 4135 582 3931 
L 2106 -26 
C 2138 -115 2144 -128 2214 -128 
C 2285 -128 2291 -115 2323 -26 
L 3776 3745 
z
" transform="scale(0.015625)"/>
       <path id="CMR17-44" d="M 333 4352 
L 333 4186 
C 774 4186 845 4186 845 3900 
L 845 452 
C 845 166 774 166 333 166 
L 333 0 
L 2368 0 
C 3398 0 4224 943 4224 2141 
C 4224 3346 3411 4352 2368 4352 
L 333 4352 
z
M 1523 166 
C 1267 166 1254 197 1254 414 
L 1254 3938 
C 1254 4155 1267 4186 1523 4186 
L 2240 4186 
C 2771 4186 3750 3874 3750 2141 
C 3750 1242 3488 879 3366 707 
C 3213 510 2848 166 2240 166 
L 1523 166 
z
" transform="scale(0.015625)"/>
       <path id="CMR17-53" d="M 2803 4290 
C 2803 4404 2797 4411 2758 4411 
C 2720 4411 2707 4385 2682 4328 
L 2490 3907 
C 2246 4257 1875 4416 1472 4416 
C 819 4416 294 3901 294 3253 
C 294 3056 339 2776 557 2510 
C 794 2218 1018 2167 1530 2033 
C 1722 1982 2042 1899 2106 1874 
C 2470 1722 2662 1341 2662 985 
C 2662 527 2336 38 1779 38 
C 1094 38 454 419 410 1311 
C 403 1413 397 1419 352 1419 
C 301 1419 294 1413 294 1285 
L 294 -1 
C 294 -115 301 -122 339 -122 
C 384 -122 397 -90 486 108 
C 493 127 493 140 614 381 
C 934 -39 1472 -128 1779 -128 
C 2477 -128 2970 451 2970 1124 
C 2970 1454 2848 1708 2778 1823 
C 2509 2230 2221 2306 1914 2382 
C 1869 2402 1856 2402 1498 2490 
C 1152 2579 1005 2624 845 2796 
C 666 2992 602 3196 602 3399 
C 602 3812 934 4263 1478 4263 
C 2157 4263 2579 3786 2675 2993 
C 2694 2878 2701 2872 2746 2872 
C 2803 2872 2803 2891 2803 2999 
L 2803 4290 
z
" transform="scale(0.015625)"/>
      </defs>
      <use xlink:href="#CMR17-52" transform="scale(0.996264)"/>
      <use xlink:href="#CMR17-41" transform="translate(67.791102 0) scale(0.996264)"/>
      <use xlink:href="#CMR17-56" transform="translate(126.453822 0) scale(0.996264)"/>
      <use xlink:href="#CMR17-44" transform="translate(195.526252 0) scale(0.996264)"/>
      <use xlink:href="#CMR17-45" transform="translate(265.919808 0) scale(0.996264)"/>
      <use xlink:href="#CMR17-53" transform="translate(328.506109 0) scale(0.996264)"/>
      <use xlink:href="#CMR17-53" transform="translate(379.401478 0) scale(0.996264)"/>
     </g>
    </g>
    <g id="line2d_22">
     <path d="M 324.214153 84.871392 
L 334.774153 84.871392 
L 345.334153 84.871392 
" style="fill: none; stroke: #dd8452; stroke-width: 1.2; stroke-linecap: round"/>
    </g>
    <g id="text_17">
     <!-- IEMOCAP -->
     <g style="fill: #262626" transform="translate(353.782153 88.567392) scale(0.1056 -0.1056)">
      <defs>
       <path id="CMR17-49" d="M 1261 3905 
C 1261 4192 1338 4192 1798 4192 
L 1798 4352 
C 1594 4352 1267 4352 1050 4352 
C 832 4352 506 4352 301 4352 
L 301 4192 
C 762 4192 838 4192 838 3905 
L 838 447 
C 838 160 762 160 301 160 
L 301 0 
C 506 0 832 0 1050 0 
C 1267 0 1594 0 1798 0 
L 1798 160 
C 1338 160 1261 160 1261 447 
L 1261 3905 
z
" transform="scale(0.015625)"/>
       <path id="CMR17-4d" d="M 1338 4224 
C 1299 4320 1293 4320 1158 4320 
L 339 4320 
L 339 4160 
C 781 4160 851 4160 851 3875 
L 851 610 
C 851 451 851 153 339 153 
L 339 -13 
C 486 0 755 0 915 0 
C 1075 0 1344 0 1491 -13 
L 1491 153 
C 979 153 979 451 979 610 
L 979 4135 
L 986 4135 
L 2490 89 
C 2515 25 2528 -13 2579 -13 
C 2630 -13 2643 25 2669 89 
L 4186 4166 
L 4192 4166 
L 4192 438 
C 4192 153 4122 153 3680 153 
L 3680 -13 
C 3853 0 4198 0 4384 0 
C 4570 0 4922 0 5094 -13 
L 5094 153 
C 4653 153 4582 153 4582 438 
L 4582 3875 
C 4582 4160 4653 4160 5094 4160 
L 5094 4320 
L 4282 4320 
C 4147 4320 4141 4314 4102 4218 
L 2720 502 
L 1338 4224 
z
" transform="scale(0.015625)"/>
       <path id="CMR17-4f" d="M 4307 2135 
C 4307 3437 3366 4416 2304 4416 
C 1216 4416 294 3424 294 2135 
C 294 845 1229 -128 2298 -128 
C 3392 -128 4307 864 4307 2135 
z
M 2304 -13 
C 1574 -13 781 711 781 2217 
C 781 3716 1651 4301 2298 4301 
C 2976 4301 3821 3698 3821 2217 
C 3821 686 3008 -13 2304 -13 
z
" transform="scale(0.015625)"/>
       <path id="CMR17-50" d="M 1267 2042 
L 2291 2042 
C 3117 2042 3718 2578 3718 3184 
C 3718 3791 3130 4352 2291 4352 
L 333 4352 
L 333 4186 
C 774 4186 845 4186 845 3899 
L 845 446 
C 845 160 774 160 333 160 
L 333 0 
C 518 0 858 0 1056 0 
C 1254 0 1594 0 1779 0 
L 1779 160 
C 1338 160 1267 160 1267 446 
L 1267 2042 
z
M 1254 2176 
L 1254 3938 
C 1254 4155 1267 4186 1523 4186 
L 2170 4186 
C 2995 4186 3232 3714 3232 3184 
C 3232 2604 2950 2176 2170 2176 
L 1254 2176 
z
" transform="scale(0.015625)"/>
      </defs>
      <use xlink:href="#CMR17-49" transform="scale(0.996264)"/>
      <use xlink:href="#CMR17-45" transform="translate(32.638409 0) scale(0.996264)"/>
      <use xlink:href="#CMR17-4d" transform="translate(95.22471 0) scale(0.996264)"/>
      <use xlink:href="#CMR17-4f" transform="translate(179.91165 0) scale(0.996264)"/>
      <use xlink:href="#CMR17-43" transform="translate(251.626439 0) scale(0.996264)"/>
      <use xlink:href="#CMR17-41" transform="translate(318.136319 0) scale(0.996264)"/>
      <use xlink:href="#CMR17-50" transform="translate(387.208749 0) scale(0.996264)"/>
     </g>
    </g>
    <g id="text_18">
     <!-- Split -->
     <g style="fill: #262626" transform="translate(332.662153 103.863162) scale(0.1152 -0.1152)">
      <defs>
       <path id="CMR17-6c" d="M 979 4396 
L 218 4326 
L 218 4160 
C 595 4160 653 4122 653 3817 
L 653 426 
C 653 184 627 153 218 153 
L 218 -13 
C 371 0 653 0 813 0 
C 979 0 1261 0 1414 -13 
L 1414 153 
C 1005 153 979 178 979 426 
L 979 4396 
z
" transform="scale(0.015625)"/>
       <path id="CMR17-69" d="M 992 3909 
C 992 4049 877 4170 730 4170 
C 589 4170 467 4056 467 3909 
C 467 3769 582 3648 730 3648 
C 870 3648 992 3763 992 3909 
z
M 243 2706 
L 243 2541 
C 602 2541 653 2502 653 2197 
L 653 427 
C 653 184 627 153 218 153 
L 218 -13 
C 371 0 646 0 806 0 
C 960 0 1222 0 1370 -13 
L 1370 153 
C 992 153 979 191 979 420 
L 979 2776 
L 243 2706 
z
" transform="scale(0.015625)"/>
       <path id="CMR17-74" d="M 966 2560 
L 1862 2560 
L 1862 2725 
L 966 2725 
L 966 3904 
L 851 3904 
C 838 3245 614 2668 70 2668 
L 70 2560 
L 627 2560 
L 627 771 
C 627 650 627 -64 1370 -64 
C 1747 -64 1965 306 1965 777 
L 1965 1140 
L 1850 1140 
L 1850 783 
C 1850 344 1677 51 1408 51 
C 1222 51 966 178 966 758 
L 966 2560 
z
" transform="scale(0.015625)"/>
      </defs>
      <use xlink:href="#CMR17-53" transform="scale(0.996264)"/>
      <use xlink:href="#CMR17-70" transform="translate(50.89537 0) scale(0.996264)"/>
      <use xlink:href="#CMR17-6c" transform="translate(101.79074 0) scale(0.996264)"/>
      <use xlink:href="#CMR17-69" transform="translate(126.661798 0) scale(0.996264)"/>
      <use xlink:href="#CMR17-74" transform="translate(151.532857 0) scale(0.996264)"/>
     </g>
    </g>
    <g id="line2d_23">
     <path d="M 324.214153 115.070784 
L 334.774153 115.070784 
L 345.334153 115.070784 
" style="fill: none; stroke: #333333; stroke-width: 1.2; stroke-linecap: round"/>
    </g>
    <g id="text_19">
     <!-- Training -->
     <g style="fill: #262626" transform="translate(353.782153 118.766784) scale(0.1056 -0.1056)">
      <defs>
       <path id="CMR17-54" d="M 3981 4326 
L 288 4326 
L 179 2918 
L 294 2918 
C 378 3976 467 4160 1453 4160 
C 1568 4160 1754 4160 1805 4154 
C 1926 4135 1926 4058 1926 3912 
L 1926 459 
C 1926 230 1907 160 1376 160 
L 1197 160 
L 1197 0 
C 1504 0 1824 0 2138 0 
C 2451 0 2771 0 3078 0 
L 3078 160 
L 2899 160 
C 2368 160 2349 230 2349 459 
L 2349 3912 
C 2349 4052 2349 4129 2464 4154 
C 2515 4160 2701 4160 2816 4160 
C 3795 4160 3891 3976 3974 2918 
L 4090 2918 
L 3981 4326 
z
" transform="scale(0.015625)"/>
       <path id="CMR17-61" d="M 2304 1653 
C 2304 2072 2304 2294 2035 2543 
C 1798 2752 1523 2816 1306 2816 
C 800 2816 435 2407 435 1971 
C 435 1728 627 1728 666 1728 
C 749 1728 896 1778 896 1954 
C 896 2112 774 2181 666 2181 
C 640 2181 608 2174 589 2168 
C 723 2592 1069 2714 1293 2714 
C 1613 2714 1965 2429 1965 1885 
L 1965 1600 
C 1587 1600 1133 1549 774 1357 
C 371 1133 256 813 256 570 
C 256 77 832 -64 1171 -64 
C 1523 -64 1850 139 1990 511 
C 2003 233 2182 -18 2464 -18 
C 2598 -18 2938 70 2938 567 
L 2938 920 
L 2822 920 
L 2822 562 
C 2822 178 2650 128 2566 128 
C 2304 128 2304 458 2304 738 
L 2304 1653 
z
M 1965 870 
C 1965 317 1568 38 1216 38 
C 896 38 646 275 646 570 
C 646 761 730 1100 1101 1305 
C 1408 1478 1760 1504 1965 1504 
L 1965 870 
z
" transform="scale(0.015625)"/>
       <path id="CMR17-6e" d="M 2656 1933 
C 2656 2259 2592 2790 1837 2790 
C 1331 2790 1069 2400 973 2144 
L 966 2144 
L 966 2790 
L 211 2720 
L 211 2554 
C 589 2554 646 2515 646 2208 
L 646 428 
C 646 184 621 153 211 153 
L 211 -13 
C 365 0 646 0 813 0 
C 979 0 1267 0 1421 -13 
L 1421 153 
C 1011 153 986 178 986 428 
L 986 1658 
C 986 2247 1344 2688 1792 2688 
C 2266 2688 2317 2266 2317 1958 
L 2317 428 
C 2317 184 2291 153 1882 153 
L 1882 -13 
C 2035 0 2317 0 2483 0 
C 2650 0 2938 0 3091 -13 
L 3091 153 
C 2682 153 2656 178 2656 428 
L 2656 1933 
z
" transform="scale(0.015625)"/>
       <path id="CMR17-67" d="M 710 1164 
C 832 1068 1043 960 1299 960 
C 1805 960 2240 1357 2240 1888 
C 2240 2054 2189 2310 1997 2509 
C 2176 2692 2438 2752 2586 2752 
C 2611 2752 2650 2752 2682 2734 
C 2656 2728 2598 2703 2598 2605 
C 2598 2527 2656 2471 2739 2471 
C 2835 2471 2886 2533 2886 2614 
C 2886 2731 2790 2854 2586 2854 
C 2330 2854 2106 2738 1926 2580 
C 1734 2753 1504 2816 1299 2816 
C 794 2816 358 2419 358 1888 
C 358 1522 570 1292 634 1228 
C 442 1004 442 743 442 711 
C 442 545 506 302 723 168 
C 390 85 128 -169 128 -486 
C 128 -943 736 -1280 1466 -1280 
C 2170 -1280 2803 -956 2803 -479 
C 2803 384 1856 384 1363 384 
C 1216 384 954 384 922 391 
C 723 423 589 602 589 826 
C 589 883 589 1024 710 1164 
z
M 1299 1068 
C 736 1068 736 1760 736 1889 
C 736 2016 736 2708 1299 2708 
C 1862 2708 1862 2016 1862 1889 
C 1862 1760 1862 1068 1299 1068 
z
M 1466 -1171 
C 826 -1171 384 -835 384 -486 
C 384 -289 493 -105 634 -4 
C 794 104 858 104 1293 104 
C 1818 104 2547 104 2547 -486 
C 2547 -835 2106 -1171 1466 -1171 
z
" transform="scale(0.015625)"/>
      </defs>
      <use xlink:href="#CMR17-54" transform="scale(0.996264)"/>
      <use xlink:href="#CMR17-72" transform="translate(58.702625 0) scale(0.996264)"/>
      <use xlink:href="#CMR17-61" transform="translate(93.983393 0) scale(0.996264)"/>
      <use xlink:href="#CMR17-69" transform="translate(139.67387 0) scale(0.996264)"/>
      <use xlink:href="#CMR17-6e" transform="translate(164.544929 0) scale(0.996264)"/>
      <use xlink:href="#CMR17-69" transform="translate(215.440298 0) scale(0.996264)"/>
      <use xlink:href="#CMR17-6e" transform="translate(240.311357 0) scale(0.996264)"/>
      <use xlink:href="#CMR17-67" transform="translate(291.206727 0) scale(0.996264)"/>
     </g>
    </g>
    <g id="line2d_24">
     <path d="M 324.214153 129.788442 
L 334.774153 129.788442 
L 345.334153 129.788442 
" style="fill: none; stroke-dasharray: 4.8,1.8; stroke-dashoffset: 0; stroke: #333333; stroke-width: 1.2"/>
    </g>
    <g id="text_20">
     <!-- Validation -->
     <g style="fill: #262626" transform="translate(353.782153 133.484442) scale(0.1056 -0.1056)">
      <defs>
       <path id="CMR17-64" d="M 1869 4326 
L 1869 4160 
C 2246 4160 2304 4122 2304 3820 
L 2304 2345 
C 2278 2377 2016 2790 1498 2790 
C 845 2790 211 2208 211 1364 
C 211 525 806 -64 1434 -64 
C 1978 -64 2259 337 2291 380 
L 2291 -63 
L 3066 -63 
L 3066 128 
C 2688 128 2630 166 2630 473 
L 2630 4396 
L 1869 4326 
z
M 2291 755 
C 2291 563 2176 390 2029 262 
C 1811 70 1594 38 1472 38 
C 1286 38 621 134 621 1356 
C 621 2612 1363 2688 1530 2688 
C 1824 2688 2061 2522 2208 2291 
C 2291 2157 2291 2138 2291 2023 
L 2291 755 
z
" transform="scale(0.015625)"/>
      </defs>
      <use xlink:href="#CMR17-56" transform="scale(0.996264)"/>
      <use xlink:href="#CMR17-61" transform="translate(61.265174 0) scale(0.996264)"/>
      <use xlink:href="#CMR17-6c" transform="translate(106.955652 0) scale(0.996264)"/>
      <use xlink:href="#CMR17-69" transform="translate(131.82671 0) scale(0.996264)"/>
      <use xlink:href="#CMR17-64" transform="translate(156.697768 0) scale(0.996264)"/>
      <use xlink:href="#CMR17-61" transform="translate(207.593138 0) scale(0.996264)"/>
      <use xlink:href="#CMR17-74" transform="translate(253.283615 0) scale(0.996264)"/>
      <use xlink:href="#CMR17-69" transform="translate(288.564383 0) scale(0.996264)"/>
      <use xlink:href="#CMR17-6f" transform="translate(313.435442 0) scale(0.996264)"/>
      <use xlink:href="#CMR17-6e" transform="translate(359.125919 0) scale(0.996264)"/>
     </g>
    </g>
   </g>
  </g>
 </g>
 <defs>
  <clipPath id="p41e8c6da57">
   <rect x="57.6" y="41.472" width="357.12" height="266.112"/>
  </clipPath>
 </defs>
</svg>
